{"glyphs":{"0":{"ha":718,"x_min":0,"x_max":0,"o":"m 113 858 b 43 438 31 732 36 579 b 240 21 47 272 53 90 b 338 3 268 11 300 4 b 676 518 599 -14 688 301 b 665 685 681 572 675 625 b 342 986 636 840 532 993 b 126 876 247 982 182 939 b 113 858 121 871 117 865 z m 319 235 b 265 319 278 242 276 288 b 253 622 239 418 243 506 b 274 724 258 668 264 708 b 321 761 283 740 303 757 b 406 739 357 774 385 765 b 444 433 450 675 449 532 b 428 299 440 385 443 344 b 371 232 418 269 408 243 b 319 235 356 226 336 229 z "},"1":{"ha":497,"x_min":0,"x_max":0,"o":"m 442 25 b 440 122 440 57 440 90 b 456 753 440 335 456 540 b 449 986 456 831 454 907 b 303 992 399 990 351 992 b 176 989 260 992 219 990 b 8 679 165 978 14 742 b 176 628 8 663 160 628 b 236 704 207 628 218 708 b 238 679 238 694 238 689 b 221 146 238 500 221 325 l 221 11 l 221 10 b 357 0 258 6 311 0 b 442 25 392 0 442 3 z "},"2":{"ha":696,"x_min":0,"x_max":0,"o":"m 636 6 b 642 7 640 6 642 6 b 639 68 636 28 639 47 b 629 201 640 114 644 164 b 286 199 508 201 410 194 b 301 279 271 206 294 261 b 660 606 401 401 643 400 b 657 731 661 643 658 692 b 521 963 647 831 604 919 b 124 904 421 1003 197 1000 b 54 583 56 828 32 711 l 54 581 l 56 581 b 261 588 118 574 178 578 l 263 588 l 263 590 b 365 758 267 657 275 758 b 389 560 451 747 464 608 b 93 347 293 482 182 447 b 44 3 33 250 56 128 b 46 -1 44 1 44 0 l 108 -1 z "},"3":{"ha":661,"x_min":0,"x_max":0,"o":"m 89 61 b 154 25 93 57 115 36 b 231 6 181 18 204 10 b 457 15 301 -4 389 -6 b 596 144 525 38 569 83 b 619 306 619 194 615 251 b 622 765 625 456 626 608 b 603 865 624 800 621 836 b 36 808 508 1033 103 1032 b 31 679 21 768 31 717 l 31 676 b 214 679 36 676 185 675 b 414 688 243 757 410 813 b 221 594 421 571 283 617 l 221 593 b 228 401 228 540 206 450 b 381 383 274 411 340 413 b 403 263 419 354 425 300 b 217 315 347 186 239 249 l 215 317 l 214 317 b 33 304 146 321 89 300 l 32 304 b 31 303 31 304 31 304 b 43 160 38 246 36 203 b 89 61 47 122 63 88 z "},"4":{"ha":650,"x_min":0,"x_max":0,"o":"m 531 457 b 540 978 525 497 540 972 l 538 978 b 319 975 508 982 336 975 b 318 974 318 975 318 975 b 15 471 110 663 51 521 b 29 269 11 360 25 282 b 326 263 33 263 306 268 b 311 -4 326 251 307 0 b 511 6 439 -3 500 -7 b 531 250 517 28 531 256 b 615 254 557 256 586 244 l 624 456 b 539 458 601 456 563 463 z m 364 454 b 181 456 338 450 181 456 b 368 751 188 469 364 779 z "},"5":{"ha":689,"x_min":0,"x_max":0,"o":"m 42 300 l 42 297 b 33 217 36 268 33 240 b 635 186 28 -96 579 -72 b 400 704 664 404 624 671 b 254 701 354 713 306 711 l 253 701 l 251 703 l 250 704 b 242 751 243 715 246 736 b 240 756 242 753 240 754 l 240 757 l 240 760 l 242 760 b 621 769 275 760 581 764 b 625 975 621 774 631 971 b 33 967 589 981 51 967 l 32 967 b 35 488 32 793 35 672 b 38 486 35 486 36 486 b 338 486 117 479 243 500 b 328 219 447 453 457 242 b 240 300 285 210 247 232 b 239 306 240 301 239 304 l 239 307 z "},"6":{"ha":724,"x_min":0,"x_max":0,"o":"m 672 315 b 625 432 667 358 653 406 b 529 492 601 458 569 479 b 361 482 475 507 411 494 b 290 451 336 475 313 464 l 290 453 b 326 760 294 556 257 701 b 428 761 353 786 401 790 b 460 665 450 738 458 697 l 460 664 l 463 664 b 646 674 528 668 592 664 b 408 983 686 822 583 988 b 78 813 276 983 126 924 b 71 793 74 806 72 800 b 60 679 60 756 64 718 b 281 -1 43 404 31 43 b 675 282 485 -24 697 61 z m 510 281 l 510 278 l 510 265 b 469 219 506 244 490 229 b 385 215 442 204 406 206 b 361 304 357 231 338 271 b 464 346 388 339 426 351 b 508 301 488 342 503 324 b 510 283 510 297 510 292 z "},"7":{"ha":668,"x_min":0,"x_max":0,"o":"m 46 792 b 400 779 140 796 293 786 b 35 10 289 528 161 281 b 246 10 90 -6 190 10 b 656 785 379 272 544 528 b 654 978 656 857 650 906 l 654 979 b 50 982 472 997 243 986 l 50 981 b 43 792 49 925 50 853 z "},"8":{"ha":750,"x_min":0,"x_max":0,"o":"m 692 721 l 692 726 b 689 751 692 736 690 742 b 675 822 685 778 682 793 b 654 875 671 839 660 865 b 581 951 621 928 607 932 b 326 983 519 988 457 988 b 169 489 97 972 25 639 b 146 79 56 379 58 189 b 613 63 235 -43 518 -49 b 585 479 713 174 722 379 l 585 481 b 686 644 644 529 671 578 b 692 688 690 657 692 672 l 692 713 z m 321 704 b 336 719 322 708 332 715 b 353 731 342 724 343 726 b 364 735 358 735 360 733 b 385 607 482 764 475 600 b 319 700 333 611 315 661 l 319 703 b 321 704 319 704 319 704 z m 467 296 b 461 278 465 292 465 283 b 443 253 456 268 453 258 b 422 243 439 249 432 246 b 343 247 399 239 367 238 b 358 383 282 272 306 364 b 443 361 390 390 422 379 b 467 319 456 351 463 335 b 468 304 468 315 468 308 b 467 296 468 300 467 297 z "},"9":{"ha":679,"x_min":0,"x_max":0,"o":"m 647 654 b 600 907 646 749 643 842 b 344 985 544 993 439 981 b 81 878 243 981 142 950 b 50 831 68 863 60 847 b 71 525 17 750 18 603 b 408 418 140 419 285 365 l 410 417 b 336 246 414 344 406 254 b 249 311 293 242 258 274 b 31 308 181 321 96 310 l 31 301 b 64 124 21 231 32 171 b 582 79 160 -17 465 -60 b 651 267 621 133 642 199 b 650 449 658 328 651 388 z m 436 669 b 431 651 432 660 435 661 b 422 635 426 644 428 644 b 278 647 393 590 304 590 l 278 649 b 268 700 272 664 269 682 b 311 753 268 728 288 743 b 438 688 369 781 442 743 b 436 669 438 681 438 674 z "}," ":{"ha":331,"x_min":0,"x_max":0,"o":""},"h":{"ha":618,"x_min":0,"x_max":0,"o":"m 231 619 b 229 1006 231 642 235 978 b 146 1004 229 1018 161 1004 b 49 1004 101 1000 93 1000 b 49 -4 43 760 49 224 b 221 4 138 3 157 -14 l 221 10 b 222 382 236 132 215 254 b 354 457 229 482 324 472 b 360 454 356 456 358 456 b 394 319 389 432 390 365 b 400 -3 401 219 393 82 b 574 3 465 -3 508 -7 b 544 644 563 194 603 592 b 265 640 468 710 342 696 b 231 619 256 633 240 625 z "},"i":{"ha":283,"x_min":0,"x_max":0,"o":"m 219 699 b 93 701 160 697 117 700 b 54 703 83 701 61 704 l 54 701 b 46 0 32 483 64 235 b 242 8 71 7 224 -12 b 243 694 229 232 242 471 l 243 699 z m 49 1001 b 54 810 47 917 54 864 b 242 819 126 814 225 794 b 238 997 242 875 238 974 z "},"j":{"ha":472,"x_min":0,"x_max":0,"o":"m 246 504 b 240 -17 239 358 244 139 b 26 -72 204 -68 89 -76 b 26 -260 19 -124 7 -203 b 407 -137 174 -267 360 -250 b 428 365 436 42 428 185 b 425 694 421 433 436 604 b 246 690 378 701 306 683 z m 238 1001 b 243 810 236 917 243 864 b 426 819 317 814 410 794 b 422 997 426 875 422 974 z "},"k":{"ha":625,"x_min":0,"x_max":0,"o":"m 242 1008 b 53 1008 194 1015 108 1008 b 53 0 54 671 40 344 b 236 0 108 -7 194 4 b 242 268 251 82 242 201 b 392 0 306 186 336 89 b 615 0 447 -11 561 0 b 374 407 544 143 457 272 b 603 718 451 511 535 613 b 383 722 550 722 432 704 b 242 524 328 658 306 579 b 242 704 236 567 242 643 z "},"l":{"ha":289,"x_min":0,"x_max":0,"o":"m 60 1010 b 51 0 26 674 78 335 b 247 8 76 7 229 -12 b 249 1006 236 232 249 778 z "},"m":{"ha":967,"x_min":0,"x_max":0,"o":"m 232 619 b 229 693 231 646 233 661 b 146 692 229 706 161 692 b 49 692 101 688 93 688 b 50 -4 42 447 50 224 b 222 4 139 3 158 -14 l 222 10 b 224 382 238 132 217 254 b 356 457 231 482 325 472 b 361 454 357 456 360 456 b 396 319 390 432 392 365 b 401 -3 403 219 394 82 b 575 3 467 -3 510 -7 b 578 447 568 115 582 303 b 682 457 613 474 658 468 b 688 454 683 456 686 456 b 722 319 717 432 718 365 b 728 -3 729 219 721 82 b 901 3 793 -3 836 -7 b 872 644 890 194 931 592 b 593 640 796 710 669 696 b 560 621 583 633 569 626 b 546 644 556 632 550 640 b 267 640 469 710 343 696 b 232 619 257 633 242 625 z "},"n":{"ha":636,"x_min":0,"x_max":0,"o":"m 231 619 b 228 693 229 646 232 661 b 144 692 228 706 160 692 b 47 692 100 688 92 688 b 49 -4 40 447 49 224 b 221 4 138 3 157 -14 l 221 10 b 222 382 236 132 215 254 b 354 457 229 482 324 472 b 360 454 356 456 358 456 b 394 319 389 432 390 365 b 400 -3 401 219 393 82 b 574 3 465 -3 508 -7 b 544 644 563 194 603 592 b 265 640 468 710 342 696 b 231 619 256 633 240 625 z "},"o":{"ha":650,"x_min":0,"x_max":0,"o":"m 86 633 b 64 551 81 613 65 572 b 57 451 58 517 57 485 b 128 51 68 331 28 140 b 247 -10 160 19 200 -1 b 569 51 354 -10 506 -39 b 614 378 606 88 610 269 b 557 653 610 500 610 618 b 403 713 518 690 463 708 b 294 714 364 717 332 710 b 86 633 207 714 113 690 z m 260 469 b 307 500 272 485 288 494 b 435 419 379 517 425 485 b 431 244 446 365 438 304 b 399 199 425 221 414 206 b 239 261 350 172 235 176 b 247 442 243 326 240 382 b 260 469 250 457 254 465 z "},"p":{"ha":631,"x_min":0,"x_max":0,"o":"m 232 -267 b 236 35 238 -157 242 -226 b 503 17 243 1 403 -21 b 615 299 585 46 615 169 b 382 690 608 485 594 675 b 253 631 331 697 281 686 b 239 636 247 619 243 626 b 238 682 239 657 238 664 b 236 692 238 686 238 690 b 49 693 181 699 106 693 b 57 -192 42 426 57 117 l 57 -283 b 232 -282 118 -294 232 -286 z m 447 257 b 315 158 438 192 392 158 b 231 318 236 158 231 175 b 331 519 231 435 236 519 b 457 338 410 519 457 431 b 447 257 457 311 457 283 z "},"q":{"ha":631,"x_min":0,"x_max":0,"o":"m 399 -282 b 574 -283 399 -286 513 -294 l 574 -192 b 582 693 574 117 589 426 b 394 692 525 693 450 699 b 393 682 393 690 393 686 b 392 636 393 664 392 657 b 378 631 388 626 383 619 b 249 690 350 686 300 697 b 15 299 39 675 19 485 b 128 17 15 169 46 46 b 394 35 228 -21 388 1 b 399 -267 389 -226 393 -157 z m 183 257 b 174 338 174 283 174 311 b 300 519 174 431 221 519 b 400 318 394 519 400 435 b 315 158 400 175 394 158 b 183 257 239 158 193 192 z "},"r":{"ha":504,"x_min":0,"x_max":0,"o":"m 236 646 b 235 693 236 671 235 663 b 144 692 235 701 160 692 b 47 692 100 688 92 688 b 49 -4 40 447 49 224 b 235 4 138 3 171 -14 l 235 10 b 229 374 235 147 233 246 b 399 469 225 476 300 481 b 451 460 400 469 429 465 b 481 450 461 456 471 454 l 493 446 b 493 690 489 503 493 564 b 301 672 493 696 372 694 b 236 646 275 663 243 650 z "},"s":{"ha":694,"x_min":0,"x_max":0,"o":"m 657 481 b 536 704 657 581 624 667 b 225 707 439 726 297 726 b 228 326 46 660 19 397 b 446 211 331 282 457 303 b 272 219 450 104 276 135 b 67 218 215 219 128 225 l 67 215 l 67 211 b 379 -22 67 63 193 -29 b 628 103 486 -24 585 13 b 610 333 663 204 650 267 b 364 424 567 389 468 408 b 363 567 276 454 278 551 b 458 481 410 571 469 528 b 657 481 521 468 597 471 z "},"t":{"ha":558,"x_min":0,"x_max":0,"o":"m 303 950 b 124 954 242 943 172 961 b 122 688 117 885 122 768 b 24 689 93 688 61 688 l 19 519 b 119 521 58 519 90 519 b 142 122 118 386 118 265 b 522 0 189 10 375 -7 b 522 188 542 57 529 136 b 308 243 460 183 344 192 b 307 524 307 326 307 424 l 522 524 b 514 697 515 574 540 668 b 304 686 419 692 361 688 b 303 764 304 714 303 740 z "},"u":{"ha":638,"x_min":0,"x_max":0,"o":"m 406 75 b 408 1 407 49 404 33 b 492 3 408 -11 476 3 b 589 3 536 7 544 7 b 588 699 596 247 588 471 b 415 690 499 692 479 708 l 415 685 b 414 313 397 564 421 439 b 282 238 407 213 313 222 b 276 240 281 239 278 239 b 242 375 247 263 246 329 b 236 697 235 475 243 613 b 63 692 171 697 128 701 b 92 50 74 500 33 103 b 371 54 168 -15 294 -1 b 406 75 381 61 396 69 z "},"v":{"ha":625,"x_min":0,"x_max":0,"o":"m 217 690 b 24 694 157 697 90 688 b 168 -4 83 476 131 228 b 429 -1 239 -4 357 -12 b 603 693 492 232 525 483 b 417 689 526 697 479 689 b 308 215 372 576 349 325 b 217 690 268 325 243 558 z "},"w":{"ha":992,"x_min":0,"x_max":0,"o":"m 225 690 b 31 694 165 697 97 688 b 175 -4 90 476 138 228 b 436 -1 246 -4 364 -12 b 490 318 463 99 468 217 b 544 -4 511 214 528 96 b 789 -1 615 -4 717 -12 b 963 693 851 232 885 483 b 782 689 889 699 842 689 b 668 215 749 604 713 324 b 579 693 628 326 606 560 b 425 694 524 704 494 688 b 407 597 425 694 408 597 b 315 215 363 394 356 326 b 225 690 275 326 251 558 z "},"x":{"ha":644,"x_min":0,"x_max":0,"o":"m 607 694 b 608 696 608 694 608 694 l 607 696 b 386 692 533 696 419 696 b 319 454 368 636 342 506 b 254 690 301 503 269 635 b 135 694 250 694 171 694 b 38 690 111 694 79 693 b 154 343 81 579 132 458 b 47 6 128 235 74 103 b 147 -3 71 -4 118 -3 b 249 -1 163 -3 235 -1 b 322 225 281 65 289 151 l 322 224 b 389 4 351 160 360 68 l 390 4 b 499 0 403 0 483 0 b 567 1 521 0 546 1 b 592 0 576 1 582 1 b 493 342 565 107 514 231 b 607 694 514 463 569 579 z "},"y":{"ha":685,"x_min":0,"x_max":0,"o":"m 267 690 b 61 694 207 697 128 688 b 222 33 118 485 183 257 b 40 -61 240 -90 131 -61 b 49 -246 31 -112 31 -190 b 596 386 521 -274 524 115 b 669 693 618 482 640 582 b 467 693 592 699 529 692 b 375 190 422 582 415 301 b 267 690 335 301 293 557 z "},"z":{"ha":657,"x_min":0,"x_max":0,"o":"m 615 690 b 438 692 600 697 467 685 b 51 690 338 692 201 690 b 51 482 56 608 44 583 b 361 504 132 493 264 500 b 43 179 268 393 132 294 b 46 1 39 124 50 108 b 611 10 222 1 440 6 b 608 203 611 75 608 143 b 307 194 508 188 400 201 b 615 504 401 300 521 403 b 615 690 608 565 615 619 z "},"A":{"ha":644,"x_min":0,"x_max":0,"o":"m 519 488 b 406 979 497 581 422 907 b 235 972 283 968 261 976 b 22 3 101 528 33 40 b 25 1 24 1 24 1 b 219 0 151 3 204 -4 b 224 1 221 0 222 1 b 285 233 256 63 260 175 b 371 232 326 233 324 239 b 436 6 396 178 414 65 l 438 6 b 624 0 497 -7 568 -11 l 624 1 z m 378 397 b 275 397 343 397 307 396 b 378 397 314 682 322 876 z "},"B":{"ha":674,"x_min":0,"x_max":0,"o":"m 536 460 b 529 489 526 471 522 476 b 597 706 567 551 597 628 b 46 963 597 1017 268 1024 l 44 961 b 49 6 50 639 38 326 b 79 3 58 1 68 3 b 631 201 281 -3 586 -61 b 536 460 653 321 594 388 z m 406 229 b 249 194 368 185 300 194 l 246 196 b 242 390 215 240 228 336 b 350 379 276 386 315 389 b 410 332 374 374 399 354 b 406 229 422 300 426 257 z m 404 625 b 243 583 375 569 299 576 b 238 756 226 649 242 713 b 349 760 265 771 311 767 b 417 708 378 753 401 738 b 404 625 432 679 417 647 z "},"C":{"ha":732,"x_min":0,"x_max":0,"o":"m 260 753 b 329 775 275 768 306 771 b 426 590 438 779 415 664 b 629 585 497 578 561 569 b 200 992 718 842 454 1075 b 129 960 174 985 150 975 b 53 839 94 928 69 888 b 38 746 42 811 33 778 b 42 169 33 446 35 303 b 357 -15 57 14 225 -33 b 628 389 560 -11 690 197 b 442 397 575 404 494 390 b 424 260 432 351 444 303 b 325 211 406 222 365 207 b 246 339 271 226 251 285 b 251 735 235 465 246 725 b 260 753 253 739 256 749 z "},"D":{"ha":669,"x_min":0,"x_max":0,"o":"m 544 857 b 393 974 511 911 453 958 b 58 960 286 969 164 986 b 54 954 57 958 56 956 b 76 1 61 632 36 294 l 78 3 b 443 7 194 3 321 3 b 619 301 514 94 582 192 b 621 304 619 303 621 303 b 640 565 638 389 636 478 b 628 653 639 594 638 624 b 544 857 611 726 585 794 z m 417 353 b 374 308 406 336 392 319 b 349 300 364 304 358 299 b 254 308 315 296 275 290 b 251 668 247 433 258 568 l 251 674 l 253 674 l 256 674 b 360 675 289 681 328 679 b 450 526 422 653 439 583 b 417 353 465 458 449 401 z "},"E":{"ha":681,"x_min":0,"x_max":0,"o":"m 638 189 b 274 196 511 185 396 196 l 272 197 b 272 371 268 242 263 317 b 440 386 292 386 383 371 b 438 579 439 454 447 517 l 438 581 b 267 585 381 582 322 581 l 265 586 b 264 749 253 636 265 694 l 265 750 l 269 750 b 633 767 392 761 515 740 l 633 768 b 633 965 633 833 643 900 b 58 957 633 974 274 968 b 57 7 40 639 57 329 b 626 4 236 -8 438 6 b 638 186 642 60 642 126 z "},"F":{"ha":678,"x_min":0,"x_max":0,"o":"m 475 363 b 479 365 478 363 479 364 b 475 593 472 432 486 565 b 300 593 433 589 353 586 b 297 594 299 593 299 593 b 294 719 281 624 274 671 b 665 742 410 731 565 735 b 665 947 669 789 665 899 b 44 944 510 986 140 961 l 44 943 b 42 3 44 511 42 339 l 43 1 b 285 1 58 -7 213 -6 b 296 342 286 107 286 225 l 297 342 b 475 363 353 351 418 353 z "},"G":{"ha":678,"x_min":0,"x_max":0,"o":"m 336 483 b 333 482 335 482 333 482 b 332 481 332 482 332 482 l 332 479 b 338 333 339 415 331 393 b 440 331 356 326 418 335 b 439 247 451 326 443 263 b 396 197 432 221 417 207 b 310 185 369 188 338 181 b 278 197 297 188 286 192 b 232 321 243 225 236 281 b 253 721 221 460 226 632 b 268 758 257 736 264 754 b 353 774 290 781 321 775 b 447 658 407 774 436 696 b 578 654 503 651 524 654 b 622 660 607 656 618 654 l 624 668 b 268 971 650 894 475 997 b 133 919 218 964 171 951 b 51 760 79 882 61 821 b 38 578 42 700 39 638 b 51 260 33 440 40 378 b 68 163 56 222 63 183 b 199 -1 90 83 125 31 b 493 8 288 -39 401 -18 b 625 174 564 35 615 79 b 625 488 643 274 636 389 l 624 489 l 621 489 b 336 483 583 489 383 513 z "},"H":{"ha":682,"x_min":0,"x_max":0,"o":"m 606 981 b 415 965 550 985 463 981 b 410 603 421 832 421 731 l 408 603 b 258 601 363 599 304 590 l 257 601 b 228 967 235 719 244 839 b 51 971 175 982 107 960 l 49 971 l 47 971 l 47 969 b 67 1 42 686 56 158 b 256 10 100 19 210 -17 b 264 382 274 126 253 254 b 425 385 318 394 371 394 l 426 383 b 447 0 442 264 429 124 l 449 0 b 643 8 494 4 579 -3 z "},"I":{"ha":344,"x_min":0,"x_max":0,"o":"m 272 976 b 119 981 189 975 153 979 b 63 983 107 981 72 985 l 63 981 b 51 -6 29 669 78 329 b 304 7 90 6 274 -24 b 306 971 286 322 306 653 l 306 976 z "},"J":{"ha":651,"x_min":0,"x_max":0,"o":"m 396 986 l 396 976 b 397 328 389 756 393 535 b 313 231 393 274 368 219 b 229 389 246 235 233 332 l 229 396 l 229 397 b 14 400 163 408 64 411 b 183 0 7 258 32 44 b 443 22 267 -18 365 -17 b 604 457 615 86 597 306 b 599 989 608 636 594 815 z "},"K":{"ha":674,"x_min":0,"x_max":0,"o":"m 401 499 b 638 965 468 654 593 810 b 449 969 578 975 508 965 b 254 643 371 860 332 744 b 247 635 250 639 247 633 b 244 968 243 740 249 863 b 58 971 185 968 119 972 b 56 7 60 647 40 325 b 258 7 104 -4 208 -7 b 254 365 258 111 250 258 b 446 3 313 263 368 92 b 639 6 506 1 579 -7 z "},"L":{"ha":642,"x_min":0,"x_max":0,"o":"m 626 126 b 628 181 625 142 626 163 b 629 211 629 190 629 201 b 269 219 585 206 306 231 l 269 221 b 268 972 274 460 261 732 b 46 976 215 994 83 992 b 42 24 51 586 58 440 l 42 -1 b 590 0 489 -8 551 4 b 626 126 629 0 633 -7 z "},"M":{"ha":674,"x_min":0,"x_max":0,"o":"m 624 442 b 625 968 633 619 618 790 b 419 963 567 968 446 958 b 338 746 386 919 349 742 b 329 750 335 746 332 747 b 238 960 300 793 272 921 l 236 960 b 47 953 175 956 97 968 b 49 4 42 199 42 29 b 53 0 50 1 51 0 b 247 4 113 0 188 -6 b 243 531 236 176 228 357 b 329 338 244 533 301 339 b 417 540 344 338 393 503 b 436 0 435 385 429 158 b 619 -1 481 0 564 6 z "},"N":{"ha":667,"x_min":0,"x_max":0,"o":"m 578 -7 b 624 0 610 -7 619 -1 l 624 28 b 622 139 624 65 622 101 b 624 293 622 190 624 239 b 622 531 624 372 624 453 l 622 978 b 531 986 596 983 565 986 b 431 978 496 986 463 983 b 428 854 429 932 428 893 b 432 653 428 788 432 726 b 422 576 432 621 428 581 b 306 808 418 576 317 782 b 233 964 272 886 260 896 b 118 978 233 972 142 978 b 56 972 96 978 74 976 b 43 600 46 854 43 728 b 47 99 43 426 47 275 l 47 1 b 181 -7 90 1 136 -7 b 242 0 201 -7 221 -6 b 240 115 240 32 240 72 b 250 468 240 271 244 468 b 268 426 254 468 261 447 l 282 385 b 450 0 325 267 389 138 b 578 -7 488 0 540 -7 z "},"O":{"ha":671,"x_min":0,"x_max":0,"o":"m 608 822 b 551 907 597 854 578 883 b 150 932 444 989 272 992 b 118 907 138 925 128 917 b 44 669 61 842 46 753 b 51 233 35 524 46 378 b 85 79 53 179 58 125 b 268 -18 118 6 192 -11 b 426 -4 322 -22 375 -19 b 569 81 483 11 538 36 b 622 268 603 135 618 203 l 626 314 b 633 599 633 410 628 500 b 631 736 635 644 635 690 b 608 822 626 765 621 794 z m 460 483 l 460 417 b 457 344 460 413 458 382 b 429 218 450 264 464 264 b 219 236 372 154 256 163 b 193 432 201 297 203 367 b 206 660 189 510 190 589 b 271 756 217 699 239 731 b 379 775 300 778 342 790 b 451 657 422 754 447 708 b 457 578 453 625 457 579 z "},"P":{"ha":672,"x_min":0,"x_max":0,"o":"m 663 682 b 42 965 646 997 271 1026 b 51 8 53 657 40 278 b 283 14 114 1 232 0 b 288 15 285 14 286 15 l 288 17 b 282 365 281 286 286 314 b 661 644 458 336 639 468 b 663 681 663 656 663 668 z m 419 740 b 444 603 468 711 475 644 b 261 563 400 558 319 567 l 257 563 b 244 771 239 618 249 704 b 249 772 246 772 247 772 b 419 740 308 788 374 778 z "},"Q":{"ha":693,"x_min":0,"x_max":0,"o":"m 638 229 b 650 367 649 274 646 321 b 654 511 654 422 654 454 b 614 836 654 622 646 736 b 356 992 551 985 485 992 b 76 858 214 992 103 936 b 46 426 39 725 46 556 b 129 75 46 290 36 164 b 325 -8 183 24 233 -1 b 476 33 382 -12 454 7 b 528 -11 488 18 517 -11 b 588 14 549 -11 572 4 b 625 67 608 29 625 40 b 599 108 625 79 611 93 b 631 193 614 143 625 171 b 638 229 635 206 636 218 z m 413 322 b 364 293 392 322 379 303 b 318 249 343 278 318 275 b 347 193 318 232 332 211 b 378 161 357 183 367 172 b 353 160 368 160 363 160 b 228 238 297 160 249 182 b 217 476 210 293 217 425 b 226 678 217 554 219 600 b 351 785 233 772 246 785 b 471 672 439 785 465 739 b 481 501 478 606 481 567 b 479 340 481 460 483 381 b 468 253 475 322 472 271 b 413 322 444 276 436 322 z "},"R":{"ha":789,"x_min":0,"x_max":0,"o":"m 713 4 b 465 424 657 157 543 286 l 465 425 l 467 425 l 472 425 b 653 546 561 431 618 479 b 407 990 768 739 626 979 b 42 971 272 1006 146 986 b 51 0 56 878 63 0 b 293 15 69 4 231 -11 b 286 354 289 86 275 271 l 289 350 b 482 1 368 253 446 86 l 483 1 b 714 4 567 -4 649 4 z m 244 776 b 418 772 310 803 378 810 b 393 606 469 732 464 621 b 253 606 349 599 296 601 l 251 606 b 244 776 244 647 249 729 z "},"S":{"ha":764,"x_min":0,"x_max":0,"o":"m 708 658 b 589 933 735 797 678 888 b 281 949 500 974 371 986 b 189 460 103 875 18 622 b 283 413 215 438 246 419 b 482 296 361 397 471 385 b 294 288 504 167 301 169 b 82 286 232 286 147 296 l 82 282 l 82 278 b 410 -7 71 101 247 -3 b 678 153 524 -11 633 39 b 656 451 722 249 721 368 b 415 597 601 531 514 586 b 325 657 376 603 340 613 b 325 694 324 669 321 682 b 499 660 340 799 521 761 b 707 658 564 642 642 647 z "},"T":{"ha":640,"x_min":0,"x_max":0,"o":"m 613 965 b 26 978 422 986 215 979 b 28 975 26 976 28 976 b 33 757 21 888 26 771 b 200 740 56 750 157 763 l 201 739 b 211 -1 224 221 207 15 b 439 8 278 10 371 -3 l 439 10 l 439 11 b 432 746 428 618 426 719 b 433 750 432 747 433 749 l 435 750 l 438 750 b 607 750 525 754 572 757 b 613 965 617 817 617 904 z "},"U":{"ha":689,"x_min":0,"x_max":0,"o":"m 640 929 b 438 933 596 956 489 938 b 425 261 432 718 435 483 b 254 254 407 176 281 164 b 242 936 236 485 232 713 l 242 938 b 46 944 186 953 103 944 l 44 944 l 46 943 b 40 204 50 699 40 449 b 396 -19 47 33 239 -35 b 624 210 529 -7 608 88 b 640 929 650 449 651 692 z "},"V":{"ha":646,"x_min":0,"x_max":0,"o":"m 625 950 b 425 963 561 961 488 949 b 422 960 424 963 422 961 b 300 310 382 804 371 610 b 226 961 226 610 240 889 b 29 947 197 968 50 972 l 29 946 b 192 7 56 625 108 307 b 307 -4 221 -3 267 -4 b 394 1 346 -4 379 1 b 625 950 483 324 563 621 z "},"W":{"ha":656,"x_min":0,"x_max":0,"o":"m 621 968 b 528 972 590 971 560 972 b 429 964 494 972 461 971 l 429 963 b 404 372 414 800 419 532 b 328 643 382 428 344 631 b 325 636 326 642 326 640 b 263 390 304 553 286 474 b 233 969 222 550 249 806 b 125 974 200 971 163 974 b 35 967 93 974 63 971 l 35 965 b 136 7 40 644 92 324 l 138 7 b 190 3 158 4 175 3 b 258 10 217 3 235 6 b 333 240 288 57 300 207 l 335 240 b 417 4 368 189 385 47 l 433 4 l 483 4 b 531 7 501 4 518 3 b 622 967 557 329 594 646 z "},"X":{"ha":685,"x_min":0,"x_max":0,"o":"m 647 969 b 649 972 647 971 649 971 l 647 972 b 435 967 542 972 483 971 l 435 965 b 339 649 408 883 372 724 b 247 956 313 719 269 878 b 175 963 242 965 225 963 b 36 957 142 963 96 961 b 194 482 97 800 163 644 b 50 13 161 326 88 150 b 174 0 85 0 131 0 b 239 3 196 0 218 1 b 343 321 283 97 296 215 l 344 319 b 439 8 389 232 399 97 l 440 7 b 501 1 458 3 478 1 b 590 4 533 1 561 4 b 626 3 603 4 614 4 b 497 474 589 156 524 317 b 647 969 524 646 596 808 z "},"Y":{"ha":656,"x_min":0,"x_max":0,"o":"m 647 963 b 594 965 636 964 617 965 b 449 956 546 965 482 963 b 336 654 415 881 374 721 b 229 958 303 724 247 876 b 164 969 208 968 186 969 b 44 961 124 969 82 961 b 219 482 82 804 179 644 l 219 479 b 38 -1 154 317 86 149 l 40 -1 b 74 -3 51 -3 63 -3 b 204 1 117 -3 165 1 b 239 0 217 1 228 1 b 647 961 350 326 544 629 z "},"Z":{"ha":696,"x_min":0,"x_max":0,"o":"m 647 743 b 647 964 646 814 657 892 b 39 958 435 965 229 976 b 42 953 40 957 42 954 l 42 951 b 61 761 60 893 39 799 b 396 743 128 761 313 754 b 56 221 288 590 136 400 b 68 -1 63 144 46 64 b 636 -3 267 10 460 7 l 636 0 b 639 222 642 67 649 151 l 639 226 b 289 208 481 219 438 226 l 290 210 b 647 742 407 389 540 560 z "},"[":{"ha":443,"x_min":0,"x_max":0,"o":"m 397 1 b 393 183 401 61 397 124 b 244 197 349 188 293 186 l 244 199 b 240 814 244 379 222 626 l 242 814 b 389 817 290 810 343 821 l 392 817 l 393 817 b 401 981 404 851 401 921 b 63 979 293 969 181 994 l 63 978 b 49 3 40 661 53 315 l 49 -3 b 263 0 89 1 215 0 z "},"]":{"ha":442,"x_min":0,"x_max":0,"o":"m 181 0 b 394 -3 228 0 354 1 l 394 3 b 381 978 388 315 403 661 l 381 979 b 42 981 263 994 150 969 b 50 817 42 921 39 851 l 51 817 l 54 817 b 201 814 100 821 153 810 l 203 814 b 199 199 221 626 199 379 l 199 197 b 50 183 150 186 94 188 b 46 1 46 124 42 61 z "},"!":{"ha":268,"x_min":0,"x_max":0,"o":"m 157 3 l 160 3 b 213 1 181 3 190 1 l 222 1 b 226 168 222 56 225 117 b 57 165 172 168 101 183 l 57 164 b 53 1 57 113 40 1 z m 49 975 b 44 236 33 722 49 481 l 46 236 b 225 243 100 238 176 238 b 224 978 214 481 219 740 b 53 975 172 993 101 979 z "},"$":{"ha":608,"x_min":0,"x_max":0,"o":"m 467 451 b 254 661 389 507 254 581 b 319 724 254 694 290 724 b 439 611 408 724 319 611 b 517 614 467 611 489 614 l 539 614 b 586 650 568 614 586 622 b 567 779 586 700 588 736 b 424 894 546 822 493 888 b 406 914 411 896 406 901 l 406 1028 b 286 1046 394 1050 279 1046 b 206 1024 253 1046 206 1051 b 213 921 206 1017 213 928 b 208 901 213 911 218 906 b 83 829 165 889 115 861 b 33 704 49 794 33 750 b 108 518 33 638 65 567 b 360 232 189 429 360 350 b 296 182 360 203 325 182 b 238 243 247 182 238 214 b 236 286 238 258 236 271 b 140 332 236 343 185 328 b 86 336 124 333 107 336 b 22 265 22 336 22 321 b 169 15 22 142 35 60 b 260 -135 263 -12 158 -135 l 299 -135 b 357 -133 319 -135 339 -133 b 410 -96 396 -133 410 -118 l 410 -90 b 411 8 410 -78 411 -4 b 499 61 418 8 489 51 b 581 222 558 110 581 163 b 467 451 581 299 539 400 z "},"(":{"ha":436,"x_min":0,"x_max":0,"o":"m 139 57 b 215 15 163 39 189 25 b 306 0 246 6 276 1 l 329 0 b 388 13 350 0 376 -3 b 392 172 392 58 388 124 l 392 179 l 390 179 b 247 282 335 181 274 222 b 233 528 225 360 235 449 b 250 660 238 571 240 614 b 258 696 251 672 254 683 b 386 807 269 758 335 792 b 386 978 388 861 393 921 l 385 979 b 283 988 353 983 315 986 b 75 863 200 986 121 951 b 42 617 31 789 46 697 l 42 583 b 33 282 43 489 38 381 b 81 121 38 233 46 183 b 86 111 83 115 85 113 b 139 57 101 90 118 72 z "},")":{"ha":436,"x_min":0,"x_max":0,"o":"m 296 57 b 349 111 317 72 333 90 b 354 121 350 113 351 115 b 401 282 389 183 397 233 b 393 583 397 381 392 489 l 393 617 b 360 863 389 697 404 789 b 151 988 314 951 235 986 b 50 979 119 986 82 983 l 49 978 b 49 807 42 921 47 861 b 176 696 100 792 165 758 b 185 660 181 683 183 672 b 201 528 194 614 197 571 b 188 282 200 449 210 360 b 44 179 161 222 100 181 l 43 179 l 43 172 b 47 13 47 124 43 58 b 106 0 58 -3 85 0 l 129 0 b 219 15 158 1 189 6 b 296 57 246 25 272 39 z "},"+":{"ha":600,"x_min":0,"x_max":0,"o":"m 189 158 b 399 161 196 163 399 149 l 399 164 b 408 333 399 192 413 301 b 574 343 426 344 563 336 b 579 544 581 411 575 467 b 411 550 538 551 454 546 b 408 722 406 565 408 682 b 207 728 378 726 229 713 b 203 703 206 718 204 714 b 197 635 201 685 199 661 b 194 547 196 596 194 568 b 18 533 185 544 28 531 b 24 349 18 522 28 389 b 25 346 24 347 24 347 b 179 332 40 338 160 332 l 182 332 b 185 304 183 331 185 319 b 188 163 189 239 181 219 b 189 158 188 158 189 160 z "},"-":{"ha":711,"x_min":0,"x_max":0,"o":"m 43 281 b 665 271 72 281 636 271 l 667 271 b 663 503 654 347 664 425 l 47 503 b 43 281 47 492 43 324 z "},"/":{"ha":547,"x_min":0,"x_max":0,"o":"m 281 210 b 311 293 292 238 301 265 b 414 594 349 393 379 493 b 468 747 431 644 450 696 b 529 949 506 869 522 922 b 538 974 533 960 533 964 b 354 985 493 996 407 974 b 286 769 328 881 290 776 b 233 608 268 715 254 663 b 103 247 122 308 110 272 b 58 125 85 207 71 165 b 22 -1 56 111 6 -1 l 24 -1 b 197 3 150 3 175 -1 b 201 10 199 4 200 6 z "},"?":{"ha":624,"x_min":0,"x_max":0,"o":"m 190 276 b 196 246 190 267 189 253 l 197 246 b 368 249 254 250 311 242 l 368 250 b 374 297 364 265 369 282 b 442 467 386 363 403 413 b 525 563 469 504 496 522 b 590 710 557 603 583 650 b 289 982 610 875 460 997 b 15 693 131 975 22 833 l 15 692 b 185 689 71 690 128 683 b 317 765 233 707 232 801 b 247 494 450 717 289 574 b 193 329 213 443 203 389 z m 353 0 l 356 0 l 356 1 l 356 3 b 364 165 356 29 364 163 b 190 163 339 176 228 178 b 192 1 190 136 185 43 l 196 1 z "},"{":{"ha":444,"x_min":0,"x_max":0,"o":"m 403 1 b 404 143 407 44 404 100 b 325 296 326 150 321 233 b 251 475 329 374 313 442 b 328 757 363 515 313 651 b 400 813 335 792 371 803 b 399 942 404 853 406 897 b 264 939 354 946 318 944 b 172 781 194 928 157 856 b 18 546 183 667 164 531 b 15 410 11 503 6 454 b 26 408 17 408 21 408 b 168 150 172 415 183 253 b 403 1 164 67 250 -17 z "},"}":{"ha":444,"x_min":0,"x_max":0,"o":"m 42 1 b 276 150 194 -17 281 67 b 418 408 261 253 272 415 b 429 410 424 408 428 408 b 426 546 439 454 433 503 b 272 781 281 531 261 667 b 181 939 288 856 250 928 b 46 942 126 944 90 946 b 44 813 39 897 40 853 b 117 757 74 803 110 792 b 193 475 132 651 82 515 b 119 296 132 442 115 374 b 40 143 124 233 118 150 b 42 1 40 100 38 44 z "},"€":{"ha":689,"x_min":0,"x_max":0,"o":"m 342 1 b 640 10 449 -3 535 -7 b 643 224 656 81 639 157 l 643 225 b 283 353 518 247 313 203 b 444 361 346 357 390 351 b 443 499 450 399 453 458 b 269 501 378 503 335 501 b 265 547 265 518 265 529 l 267 547 b 443 557 319 551 396 542 l 443 558 b 443 696 447 597 449 650 l 443 697 b 325 704 411 707 365 704 l 319 704 b 633 775 378 804 525 782 b 635 779 635 776 635 778 b 632 983 642 842 639 924 l 632 985 l 631 985 b 104 860 444 978 208 1013 b 46 654 61 792 50 725 b 135 97 42 453 28 222 b 186 53 149 79 165 65 b 317 4 226 29 265 14 z "},"±":{"ha":678,"x_min":0,"x_max":0,"o":"m 222 356 b 432 358 229 360 432 346 l 432 361 b 442 531 432 389 446 499 b 607 540 460 542 596 533 b 613 742 614 608 608 664 b 444 747 571 749 488 743 b 442 919 439 763 442 879 b 240 925 411 924 263 910 b 236 900 239 915 238 911 b 231 832 235 882 232 858 b 228 744 229 793 228 765 b 51 731 218 742 61 728 b 57 546 51 719 61 586 b 58 543 57 544 57 544 b 213 529 74 535 193 529 l 215 529 b 218 501 217 528 218 517 b 221 360 222 436 214 417 b 222 356 221 356 222 357 z m 28 15 b 650 6 57 15 621 6 l 651 6 b 647 238 639 82 649 160 l 32 238 b 28 15 32 226 28 58 z "},"À":{"ha":642,"x_min":0,"x_max":0,"o":"m 96 1176 l 97 1175 b 238 1042 124 1149 219 1069 b 424 1047 296 1035 397 1040 b 192 1274 360 1107 257 1222 z m 524 488 b 410 979 501 581 431 910 b 239 972 288 968 265 976 b 26 3 106 529 32 40 b 29 1 28 1 28 1 b 224 0 156 3 208 -4 b 228 1 225 0 226 1 b 289 233 260 63 264 175 b 375 232 331 233 328 239 b 440 6 400 178 418 65 l 442 6 b 628 0 501 -7 572 -11 l 628 1 z m 382 397 b 279 397 347 397 311 396 b 382 397 318 682 326 876 z "},"Á":{"ha":643,"x_min":0,"x_max":0,"o":"m 426 1274 b 194 1047 361 1222 258 1107 b 381 1042 219 1040 321 1035 b 521 1175 394 1069 496 1150 l 522 1176 z m 514 488 b 400 979 492 581 421 910 b 229 972 278 968 256 976 b 17 3 96 529 22 40 b 19 1 18 1 18 1 b 214 0 146 3 199 -4 b 218 1 215 0 217 1 b 279 233 250 63 254 175 b 365 232 321 233 318 239 b 431 6 390 178 408 65 l 432 6 b 618 0 492 -7 563 -11 l 618 1 z m 372 397 b 269 397 338 397 301 396 b 372 397 308 682 317 876 z "},"Â":{"ha":644,"x_min":0,"x_max":0,"o":"m 324 1275 b 99 1049 242 1199 161 1133 b 247 1043 221 1042 214 1039 b 319 1111 261 1047 306 1104 b 390 1043 338 1100 376 1043 b 550 1050 479 1032 546 1054 z m 519 488 b 406 979 497 581 422 907 b 235 972 283 968 261 976 b 22 3 101 528 33 40 b 25 1 24 1 24 1 b 219 0 151 3 204 -4 b 224 1 221 0 222 1 b 285 233 256 63 260 175 b 371 232 326 233 324 239 b 436 6 396 178 414 65 l 438 6 b 624 0 497 -7 568 -11 l 624 1 z m 378 397 b 275 397 343 397 307 396 b 378 397 314 682 322 876 z "},"Ã":{"ha":663,"x_min":0,"x_max":0,"o":"m 210 1049 b 210 1104 203 1071 203 1083 l 214 1113 b 285 1143 229 1136 264 1143 b 333 1111 308 1142 322 1129 b 475 1043 357 1054 418 1033 b 607 1264 572 1058 618 1178 l 607 1265 b 606 1267 606 1265 606 1265 l 604 1268 b 490 1264 565 1267 528 1268 b 383 1190 479 1231 439 1143 b 318 1257 360 1206 347 1239 b 131 1231 258 1297 181 1281 b 47 1051 96 1192 58 1092 b 115 1053 71 1053 94 1053 b 210 1047 153 1053 192 1051 z m 526 488 b 413 979 504 581 433 910 b 242 972 290 968 268 976 b 29 3 108 528 40 40 b 32 1 31 1 31 1 b 226 0 158 3 211 -4 b 231 1 228 0 229 1 b 292 233 263 63 267 175 b 378 232 333 233 331 239 b 443 6 403 178 421 65 l 444 6 b 631 0 504 -7 575 -11 l 631 1 z m 385 397 b 282 397 350 397 314 396 b 385 397 321 682 329 876 z "},"È":{"ha":654,"x_min":0,"x_max":0,"o":"m 143 1176 l 144 1175 b 285 1042 171 1149 267 1069 b 471 1047 343 1035 444 1040 b 239 1274 407 1107 304 1222 z m 632 189 b 268 196 506 185 390 196 l 267 197 b 267 371 263 242 257 317 b 435 386 286 386 378 371 b 432 579 433 454 442 517 l 432 581 b 261 585 375 582 317 581 l 260 586 b 258 749 247 636 260 694 l 260 750 l 264 750 b 628 767 386 761 510 740 l 628 768 b 628 965 628 833 638 900 b 53 957 628 974 268 968 b 51 7 35 639 51 329 b 621 4 231 -8 432 6 b 632 186 636 60 636 126 z "},"É":{"ha":658,"x_min":0,"x_max":0,"o":"m 626 189 b 263 196 500 185 385 196 l 261 197 b 261 371 257 242 251 317 b 429 386 281 386 372 371 b 426 579 428 454 436 517 l 426 581 b 256 585 369 582 311 581 l 254 586 b 253 749 242 636 254 694 l 254 750 l 258 750 b 622 767 381 761 504 740 l 622 768 b 622 965 622 833 632 900 b 47 957 622 974 263 968 b 46 7 29 639 46 329 b 615 4 225 -8 426 6 b 626 186 631 60 631 126 z m 438 1274 b 206 1047 372 1222 269 1107 b 392 1042 231 1040 332 1035 b 532 1175 406 1069 507 1150 l 533 1176 z "},"Ê":{"ha":660,"x_min":0,"x_max":0,"o":"m 338 1275 b 113 1049 256 1199 175 1133 b 261 1043 235 1042 228 1039 b 333 1111 275 1047 319 1104 b 404 1043 351 1100 390 1043 b 564 1050 493 1032 560 1054 z m 631 189 b 267 196 504 185 389 196 l 265 197 b 265 371 261 242 256 317 b 433 386 285 386 376 371 b 431 579 432 454 440 517 l 431 581 b 260 585 374 582 315 581 l 258 586 b 257 749 246 636 258 694 l 258 750 l 263 750 b 626 767 385 761 508 740 l 626 768 b 626 965 626 833 636 900 b 51 957 626 974 267 968 b 50 7 33 639 50 329 b 619 4 229 -8 431 6 b 631 186 635 60 635 126 z "},"Ù":{"ha":668,"x_min":0,"x_max":0,"o":"m 114 1176 l 115 1175 b 256 1042 142 1149 238 1069 b 442 1047 314 1035 415 1040 b 210 1274 378 1107 275 1222 z m 633 931 b 431 933 590 956 478 938 b 418 261 425 718 428 483 b 247 254 400 176 274 164 b 235 936 229 485 225 713 l 235 938 b 39 944 179 953 96 944 l 38 944 l 39 943 b 33 204 43 699 33 449 b 389 -19 40 33 232 -35 b 617 210 522 -7 601 88 b 633 929 643 449 644 692 z "},"Ú":{"ha":669,"x_min":0,"x_max":0,"o":"m 626 931 b 424 933 583 956 471 938 b 411 261 418 718 421 483 b 240 254 393 176 267 164 b 228 936 222 485 218 713 l 228 938 b 32 944 172 953 89 944 l 31 944 l 32 943 b 26 204 36 699 26 449 b 382 -19 33 33 225 -35 b 610 210 515 -7 594 88 b 626 929 636 449 638 692 z m 461 1274 b 229 1047 396 1222 293 1107 b 415 1042 254 1040 356 1035 b 556 1175 429 1069 531 1150 l 557 1176 z "},"Û":{"ha":672,"x_min":0,"x_max":0,"o":"m 325 1275 b 100 1049 243 1199 163 1133 b 249 1043 222 1042 215 1039 b 321 1111 263 1047 307 1104 b 392 1043 339 1100 378 1043 b 551 1050 481 1032 547 1054 z m 632 931 b 429 933 589 956 476 938 b 417 261 424 718 426 483 b 246 254 399 176 272 164 b 233 936 228 485 224 713 l 233 938 b 38 944 178 953 94 944 l 36 944 l 38 943 b 32 204 42 699 32 449 b 388 -19 39 33 231 -35 b 615 210 521 -7 600 88 b 632 929 642 449 643 692 z "},"ù":{"ha":615,"x_min":0,"x_max":0,"o":"m 118 950 l 119 949 b 260 815 146 922 242 843 b 446 821 318 808 419 814 b 214 1047 382 881 279 996 z m 400 75 b 403 1 401 49 399 33 b 486 3 403 -11 471 3 b 583 3 531 7 539 7 b 582 699 590 247 582 471 b 410 690 493 692 474 708 l 410 685 b 408 313 392 564 415 439 b 276 238 401 213 307 222 b 271 240 275 239 272 239 b 236 375 242 263 240 329 b 231 697 229 475 238 613 b 57 692 165 697 122 701 b 86 50 68 503 26 100 b 365 54 163 -15 289 -1 b 400 75 375 61 390 69 z "},"ú":{"ha":617,"x_min":0,"x_max":0,"o":"m 431 1047 b 199 821 365 996 263 881 b 385 815 224 814 325 808 b 525 949 399 843 500 924 l 526 950 z m 390 75 b 393 1 392 49 389 33 b 476 3 393 -11 461 3 b 574 3 521 7 529 7 b 572 699 581 247 572 471 b 400 690 483 692 464 708 l 400 685 b 399 313 382 564 406 439 b 267 238 392 213 297 222 b 261 240 265 239 263 239 b 226 375 232 263 231 329 b 221 697 219 475 228 613 b 47 692 156 697 113 701 b 76 50 58 503 17 100 b 356 54 153 -15 279 -1 b 390 75 365 61 381 69 z "},"û":{"ha":619,"x_min":0,"x_max":0,"o":"m 328 1051 b 103 825 246 975 165 910 b 251 819 225 818 218 815 b 324 888 265 824 310 881 b 394 819 342 876 381 819 b 554 826 483 808 550 831 z m 397 75 b 400 1 399 49 396 33 b 483 3 400 -11 468 3 b 581 3 528 7 536 7 b 579 699 588 247 579 471 b 407 690 490 692 471 708 l 407 685 b 406 313 389 564 413 439 b 274 238 399 213 304 222 b 268 240 272 239 269 239 b 233 375 239 263 238 329 b 228 697 226 475 235 613 b 54 692 163 697 119 701 b 83 50 65 503 24 100 b 363 54 160 -15 286 -1 b 397 75 372 61 388 69 z "},"è":{"ha":619,"x_min":0,"x_max":0,"o":"m 129 950 l 131 949 b 271 815 157 922 253 843 b 457 821 329 808 431 814 b 225 1047 393 881 290 996 z m 218 349 b 590 360 276 338 551 349 b 404 704 601 515 576 675 b 61 588 272 738 110 697 b 31 394 39 526 36 463 b 157 11 24 244 58 81 b 229 -14 179 -1 203 -10 b 549 47 335 -14 486 -42 b 588 264 575 69 581 169 b 413 267 547 275 450 263 b 239 204 419 117 283 118 b 218 324 218 238 219 268 z m 386 564 b 440 474 419 547 440 511 b 353 457 440 446 449 457 b 222 488 215 457 215 449 b 338 578 229 538 250 578 b 386 564 358 578 371 574 z "},"é":{"ha":622,"x_min":0,"x_max":0,"o":"m 426 1047 b 194 821 361 996 258 881 b 381 815 219 814 321 808 b 521 949 394 843 496 924 l 522 950 z m 211 349 b 583 360 271 338 543 349 b 397 704 594 515 569 675 b 54 588 265 738 103 697 b 24 394 32 526 29 463 b 150 11 17 244 51 81 b 222 -14 172 -1 196 -10 b 542 47 328 -14 479 -42 b 581 264 568 69 574 169 b 406 267 540 275 443 263 b 232 204 413 117 276 118 b 211 324 211 238 213 268 z m 379 564 b 433 474 413 547 433 511 b 346 457 433 446 442 457 b 215 488 208 457 208 449 b 331 578 222 538 243 578 b 379 564 351 578 364 574 z "},"ê":{"ha":624,"x_min":0,"x_max":0,"o":"m 325 1051 b 100 825 243 975 163 910 b 249 819 222 818 215 815 b 321 888 263 824 307 881 b 392 819 339 876 378 819 b 551 826 481 808 547 831 z m 217 349 b 589 360 276 338 549 349 b 403 704 600 515 575 675 b 60 588 271 738 108 697 b 29 394 38 526 35 463 b 156 11 22 244 57 81 b 228 -14 178 -1 201 -10 b 547 47 333 -14 485 -42 b 586 264 574 69 579 169 b 411 267 546 275 449 263 b 238 204 418 117 282 118 b 217 324 217 238 218 268 z m 385 564 b 439 474 418 547 439 511 b 351 457 439 446 447 457 b 221 488 214 457 214 449 b 336 578 228 538 249 578 b 385 564 357 578 369 574 z "},"ì":{"ha":365,"x_min":0,"x_max":0,"o":"m 308 699 b 182 701 249 697 206 700 b 143 703 172 701 150 704 l 143 701 b 135 0 121 483 153 235 b 331 8 160 7 313 -12 b 332 694 318 232 331 471 l 332 699 z m 11 950 l 13 949 b 153 815 39 922 135 843 b 339 821 211 808 313 814 b 107 1047 275 881 172 996 z "},"í":{"ha":367,"x_min":0,"x_max":0,"o":"m 35 699 l 35 694 b 36 8 36 471 49 232 b 232 0 54 -12 207 7 b 224 701 214 235 246 483 l 224 703 b 185 701 217 704 194 701 b 58 699 161 700 118 697 z m 260 1047 b 28 821 194 996 92 881 b 214 815 53 814 154 808 b 354 949 228 843 329 924 l 356 950 z "},"î":{"ha":474,"x_min":0,"x_max":0,"o":"m 307 699 b 181 701 247 697 204 700 b 142 703 171 701 149 704 l 142 701 b 133 0 119 483 151 235 b 329 8 158 7 311 -12 b 331 694 317 232 329 471 l 331 699 z m 238 1051 b 13 825 156 975 75 910 b 161 819 135 818 128 815 b 233 888 175 824 219 881 b 304 819 251 876 290 819 b 464 826 393 808 460 831 z "},"Ò":{"ha":656,"x_min":0,"x_max":0,"o":"m 89 1176 l 90 1175 b 231 1042 117 1149 213 1069 b 417 1047 289 1035 390 1040 b 185 1274 353 1107 250 1222 z m 606 829 b 549 914 594 861 575 890 b 147 939 442 996 269 999 b 115 914 135 932 125 924 b 42 676 58 849 43 760 b 49 240 32 531 43 385 b 82 86 50 186 56 132 b 265 -11 115 13 189 -4 b 424 3 319 -15 372 -12 b 567 88 481 18 535 43 b 619 275 600 142 615 210 l 624 321 b 631 606 631 417 625 507 b 628 743 632 651 632 697 b 606 829 624 772 618 801 z m 457 490 l 457 424 b 454 351 457 419 456 389 b 426 225 447 271 461 271 b 217 243 369 161 253 169 b 190 439 199 304 200 374 b 203 667 186 517 188 596 b 268 763 214 706 236 738 b 376 782 297 785 339 797 b 449 664 419 761 444 715 b 454 585 450 632 454 586 z "},"Ó":{"ha":656,"x_min":0,"x_max":0,"o":"m 597 829 b 540 914 586 861 567 890 b 139 939 433 996 261 999 b 107 914 126 932 117 924 b 33 676 50 849 35 760 b 40 240 24 531 35 385 b 74 86 42 186 47 132 b 257 -11 107 13 181 -4 b 415 3 311 -15 364 -12 b 558 88 472 18 526 43 b 611 275 592 142 607 210 l 615 321 b 622 606 622 417 617 507 b 619 743 624 651 624 697 b 597 829 615 772 610 801 z m 449 490 l 449 424 b 446 351 449 419 447 389 b 418 225 439 271 453 271 b 208 243 361 161 244 169 b 182 439 190 304 192 374 b 194 667 178 517 179 596 b 260 763 206 706 228 738 b 368 782 289 785 331 797 b 440 664 411 761 436 715 b 446 585 442 632 446 586 z m 451 1274 b 219 1047 386 1222 283 1107 b 406 1042 244 1040 346 1035 b 546 1175 419 1069 521 1150 l 547 1176 z "},"Ô":{"ha":658,"x_min":0,"x_max":0,"o":"m 338 1275 b 113 1049 256 1199 175 1133 b 261 1043 235 1042 228 1039 b 333 1111 275 1047 319 1104 b 404 1043 351 1100 390 1043 b 564 1050 493 1032 560 1054 z m 601 829 b 544 914 590 861 571 890 b 143 939 438 996 265 999 b 111 914 131 932 121 924 b 38 676 54 849 39 760 b 44 240 28 531 39 385 b 78 86 46 186 51 132 b 261 -11 111 13 185 -4 b 419 3 315 -15 368 -12 b 563 88 476 18 531 43 b 615 275 596 142 611 210 l 619 321 b 626 606 626 417 621 507 b 624 743 628 651 628 697 b 601 829 619 772 614 801 z m 453 490 l 453 424 b 450 351 453 419 451 389 b 422 225 443 271 457 271 b 213 243 365 161 249 169 b 186 439 194 304 196 374 b 199 667 182 517 183 596 b 264 763 210 706 232 738 b 372 782 293 785 335 797 b 444 664 415 761 440 715 b 450 585 446 632 450 586 z "},"Õ":{"ha":669,"x_min":0,"x_max":0,"o":"m 607 829 b 550 914 596 861 576 890 b 149 939 443 996 271 999 b 117 914 136 932 126 924 b 43 676 60 849 44 760 b 50 240 33 531 44 385 b 83 86 51 186 57 132 b 267 -11 117 13 190 -4 b 425 3 321 -15 374 -12 b 568 88 482 18 536 43 b 621 275 601 142 617 210 l 625 321 b 632 606 632 417 626 507 b 629 743 633 651 633 697 b 607 829 625 772 619 801 z m 458 490 l 458 424 b 456 351 458 419 457 389 b 428 225 449 271 463 271 b 218 243 371 161 254 169 b 192 439 200 304 201 374 b 204 667 188 517 189 596 b 269 763 215 706 238 738 b 378 782 299 785 340 797 b 450 664 421 761 446 715 b 456 585 451 632 456 586 z m 217 1033 b 217 1089 210 1056 210 1068 b 238 1115 221 1100 228 1108 b 286 1128 256 1122 271 1128 b 340 1096 314 1128 328 1117 b 508 1035 367 1029 449 1014 b 564 1074 529 1042 547 1054 b 614 1250 597 1122 626 1190 b 613 1251 613 1250 613 1250 l 611 1253 b 497 1249 572 1251 535 1253 b 390 1175 486 1215 446 1128 b 325 1242 367 1190 354 1224 b 138 1215 265 1282 188 1265 b 54 1036 103 1176 65 1076 b 122 1038 78 1038 101 1038 b 217 1032 160 1038 199 1036 z "},"à":{"ha":649,"x_min":0,"x_max":0,"o":"m 608 692 b 472 699 549 696 504 697 b 406 697 461 699 406 701 b 400 626 406 675 399 656 b 258 690 374 690 325 690 b 25 369 128 686 25 554 b 229 -3 25 221 86 -3 b 413 78 294 -3 368 33 b 407 29 413 60 407 50 b 424 -1 407 14 411 3 b 483 3 444 -1 463 3 b 574 -1 513 3 544 -1 l 590 -1 b 608 56 613 3 608 32 b 611 644 621 254 606 444 l 611 658 b 608 692 611 669 610 681 z m 204 415 b 333 504 214 461 257 504 b 406 360 410 504 406 489 b 319 192 406 256 411 192 b 196 342 242 192 196 258 b 204 415 196 365 197 392 z m 157 950 l 158 949 b 299 815 185 922 281 843 b 485 821 357 808 458 814 b 253 1047 421 881 318 996 z "},"á":{"ha":650,"x_min":0,"x_max":0,"o":"m 601 692 b 465 699 542 696 497 697 b 399 697 454 699 399 701 b 393 626 399 675 392 656 b 251 690 367 690 318 690 b 18 369 121 686 18 554 b 222 -3 18 221 79 -3 b 406 78 288 -3 361 33 b 400 29 406 60 400 50 b 417 -1 400 14 404 3 b 476 3 438 -1 456 3 b 567 -1 506 3 538 -1 l 583 -1 b 601 56 606 3 601 32 b 604 644 614 254 599 444 l 604 658 b 601 692 604 669 603 681 z m 197 415 b 326 504 207 461 250 504 b 399 360 403 504 399 489 b 313 192 399 256 404 192 b 189 342 235 192 189 258 b 197 415 189 365 190 392 z m 444 1047 b 213 821 379 996 276 881 b 399 815 238 814 339 808 b 539 949 413 843 514 924 l 540 950 z "},"â":{"ha":653,"x_min":0,"x_max":0,"o":"m 347 1051 b 122 825 265 975 185 910 b 271 819 244 818 238 815 b 343 888 285 824 329 881 b 414 819 361 876 400 819 b 574 826 503 808 569 831 z m 607 692 b 471 699 547 696 503 697 b 404 697 460 699 404 701 b 399 626 404 675 397 656 b 257 690 372 690 324 690 b 24 369 126 686 24 554 b 228 -3 24 221 85 -3 b 411 78 293 -3 367 33 b 406 29 411 60 406 50 b 422 -1 406 14 410 3 b 482 3 443 -1 461 3 b 572 -1 511 3 543 -1 l 589 -1 b 607 56 611 3 607 32 b 610 644 619 254 604 444 l 610 658 b 607 692 610 669 608 681 z m 203 415 b 332 504 213 461 256 504 b 404 360 408 504 404 489 b 318 192 404 256 410 192 b 194 342 240 192 194 258 b 203 415 194 365 196 392 z "},"ò":{"ha":631,"x_min":0,"x_max":0,"o":"m 128 950 l 129 949 b 269 815 156 922 251 843 b 456 821 328 808 429 814 b 224 1047 392 881 289 996 z m 81 633 b 58 551 75 613 60 572 b 51 451 53 517 51 485 b 122 51 63 331 22 140 b 242 -10 154 19 194 -1 b 564 51 349 -10 500 -39 b 608 378 600 88 604 269 b 551 653 604 500 604 618 b 397 713 513 690 457 708 b 289 714 358 717 326 710 b 81 633 201 714 107 690 z m 254 469 b 301 500 267 485 282 494 b 429 419 374 517 419 485 b 425 244 440 365 432 304 b 393 199 419 221 408 206 b 233 261 344 172 229 176 b 242 442 238 326 235 382 b 254 469 244 457 249 465 z "},"ó":{"ha":633,"x_min":0,"x_max":0,"o":"m 443 1047 b 211 821 378 996 275 881 b 397 815 236 814 338 808 b 538 949 411 843 513 924 l 539 950 z m 74 633 b 51 551 68 613 53 572 b 44 451 46 517 44 485 b 115 51 56 331 15 140 b 235 -10 147 19 188 -1 b 557 51 342 -10 493 -39 b 601 378 593 88 597 269 b 544 653 597 500 597 618 b 390 713 506 690 450 708 b 282 714 351 717 319 710 b 74 633 194 714 100 690 z m 247 469 b 294 500 260 485 275 494 b 422 419 367 517 413 485 b 418 244 433 365 425 304 b 386 199 413 221 401 206 b 226 261 338 172 222 176 b 235 442 231 326 228 382 b 247 469 238 457 242 465 z "},"ô":{"ha":636,"x_min":0,"x_max":0,"o":"m 339 1051 b 114 825 257 975 176 910 b 263 819 236 818 229 815 b 335 888 276 824 321 881 b 406 819 353 876 392 819 b 565 826 494 808 561 831 z m 79 633 b 57 551 74 613 58 572 b 50 451 51 517 50 485 b 121 51 61 331 21 140 b 240 -10 153 19 193 -1 b 563 51 347 -10 499 -39 b 607 378 599 88 603 269 b 550 653 603 500 603 618 b 396 713 511 690 456 708 b 288 714 357 717 325 710 b 79 633 200 714 106 690 z m 253 469 b 300 500 265 485 281 494 b 428 419 372 517 418 485 b 424 244 439 365 431 304 b 392 199 418 221 407 206 b 232 261 343 172 228 176 b 240 442 236 326 233 382 b 253 469 243 457 247 465 z "},"õ":{"ha":658,"x_min":0,"x_max":0,"o":"m 217 819 b 217 875 210 842 210 854 l 221 883 b 292 914 236 907 271 914 b 340 882 315 913 329 900 b 482 814 364 825 425 804 b 614 1035 579 829 625 949 l 614 1036 b 613 1038 613 1036 613 1036 l 611 1039 b 497 1035 572 1038 535 1039 b 390 961 486 1001 446 914 b 325 1028 367 976 354 1010 b 138 1001 265 1068 188 1051 b 54 822 103 963 65 863 b 122 824 78 824 101 824 b 217 818 160 824 199 822 z m 85 633 b 63 551 79 613 64 572 b 56 451 57 517 56 485 b 126 51 67 331 26 140 b 246 -10 158 19 199 -1 b 568 51 353 -10 504 -39 b 613 378 604 88 608 269 b 556 653 608 500 608 618 b 401 713 517 690 461 708 b 293 714 363 717 331 710 b 85 633 206 714 111 690 z m 258 469 b 306 500 271 485 286 494 b 433 419 378 517 424 485 b 429 244 444 365 436 304 b 397 199 424 221 413 206 b 238 261 349 172 233 176 b 246 442 242 326 239 382 b 258 469 249 457 253 465 z "},"Ë":{"ha":664,"x_min":0,"x_max":0,"o":"m 633 189 b 269 196 507 185 392 196 l 268 197 b 268 371 264 242 258 317 b 436 386 288 386 379 371 b 433 579 435 454 443 517 l 433 581 b 263 585 376 582 318 581 l 261 586 b 260 749 249 636 261 694 l 261 750 l 265 750 b 629 767 388 761 511 740 l 629 768 b 629 965 629 833 639 900 b 54 957 629 974 269 968 b 53 7 36 639 53 329 b 622 4 232 -8 433 6 b 633 186 638 60 638 126 z m 279 1053 l 282 1053 l 282 1054 l 282 1056 b 290 1196 282 1081 290 1193 b 139 1194 264 1207 174 1206 b 140 1054 139 1171 133 1090 l 144 1054 z m 521 1053 l 524 1053 l 524 1054 l 524 1056 b 532 1196 524 1081 532 1193 b 381 1194 506 1207 415 1206 b 382 1054 381 1171 375 1090 l 386 1054 z "},"¡":{"ha":268,"x_min":0,"x_max":0,"o":"m 111 875 l 108 875 b 56 876 88 875 78 876 l 46 876 b 42 710 46 822 43 761 b 211 713 96 710 167 694 l 211 714 b 215 876 211 765 228 876 z m 219 -97 b 224 642 232 154 219 397 l 222 642 b 43 635 168 640 92 640 b 44 -100 54 397 49 138 b 215 -97 96 -115 167 -101 z "},"Ö":{"ha":663,"x_min":0,"x_max":0,"o":"m 604 829 b 547 914 593 861 574 890 b 146 939 440 996 268 999 b 114 914 133 932 124 924 b 40 676 57 849 42 760 b 47 240 31 531 42 385 b 81 86 49 186 54 132 b 264 -11 114 13 188 -4 b 422 3 318 -15 371 -12 b 565 88 479 18 533 43 b 618 275 599 142 614 210 l 622 321 b 629 606 629 417 624 507 b 626 743 631 651 631 697 b 604 829 622 772 617 801 z m 456 490 l 456 424 b 453 351 456 419 454 389 b 425 225 446 271 460 271 b 215 243 368 161 251 169 b 189 439 197 304 199 374 b 201 667 185 517 186 596 b 267 763 213 706 235 738 b 375 782 296 785 338 797 b 447 664 418 761 443 715 b 453 585 449 632 453 586 z m 283 1053 l 286 1053 l 286 1054 l 286 1056 b 294 1196 286 1081 294 1193 b 143 1194 268 1207 178 1206 b 144 1054 143 1171 138 1090 l 149 1054 z m 525 1053 l 528 1053 l 528 1054 l 528 1056 b 536 1196 528 1081 536 1193 b 385 1194 510 1207 419 1206 b 386 1054 385 1171 379 1090 l 390 1054 z "},"Ü":{"ha":675,"x_min":0,"x_max":0,"o":"m 276 1053 l 279 1053 l 279 1054 l 279 1056 b 288 1196 279 1081 288 1193 b 136 1194 261 1207 171 1206 b 138 1054 136 1171 131 1090 l 142 1054 z m 518 1053 l 521 1053 l 521 1054 l 521 1056 b 529 1196 521 1081 529 1193 b 378 1194 503 1207 413 1206 b 379 1054 378 1171 372 1090 l 383 1054 z m 633 931 b 431 933 590 956 478 938 b 418 261 425 718 428 483 b 247 254 400 176 274 164 b 235 936 229 485 225 713 l 235 938 b 39 944 179 953 96 944 l 38 944 l 39 943 b 33 204 43 699 33 449 b 389 -19 40 33 232 -35 b 617 210 522 -7 601 88 b 633 929 643 449 644 692 z "},"ã":{"ha":676,"x_min":0,"x_max":0,"o":"m 613 692 b 476 699 553 696 508 697 b 410 697 465 699 410 701 b 404 626 410 675 403 656 b 263 690 378 690 329 690 b 29 369 132 686 29 554 b 233 -3 29 221 90 -3 b 417 78 299 -3 372 33 b 411 29 417 60 411 50 b 428 -1 411 14 415 3 b 488 3 449 -1 467 3 b 578 -1 517 3 549 -1 l 594 -1 b 613 56 617 3 613 32 b 615 644 625 254 610 444 l 615 658 b 613 692 615 669 614 681 z m 208 415 b 338 504 218 461 261 504 b 410 360 414 504 410 489 b 324 192 410 256 415 192 b 200 342 246 192 200 258 b 208 415 200 365 201 392 z m 231 819 b 231 875 224 842 224 854 l 235 883 b 306 914 250 907 285 914 b 354 882 329 913 343 900 b 496 814 378 825 439 804 b 628 1035 593 829 639 949 l 628 1036 b 626 1038 626 1036 626 1036 l 625 1039 b 511 1035 586 1038 549 1039 b 404 961 500 1001 460 914 b 339 1028 381 976 368 1010 b 151 1001 279 1068 201 1051 b 68 822 117 963 79 863 b 136 824 92 824 115 824 b 231 818 174 824 213 822 z "},"ä":{"ha":667,"x_min":0,"x_max":0,"o":"m 611 692 b 475 699 551 696 507 697 b 408 697 464 699 408 701 b 403 626 408 675 401 656 b 261 690 376 690 328 690 b 28 369 131 686 28 554 b 232 -3 28 221 89 -3 b 415 78 297 -3 371 33 b 410 29 415 60 410 50 b 426 -1 410 14 414 3 b 486 3 447 -1 465 3 b 576 -1 515 3 547 -1 l 593 -1 b 611 56 615 3 611 32 b 614 644 624 254 608 444 l 614 658 b 611 692 614 669 613 681 z m 207 415 b 336 504 217 461 260 504 b 408 360 413 504 408 489 b 322 192 408 256 414 192 b 199 342 244 192 199 258 b 207 415 199 365 200 392 z m 161 1056 b 167 864 160 971 167 918 b 354 874 239 868 338 849 b 350 1051 354 929 350 1028 z m 417 1056 b 422 864 415 971 422 918 b 610 874 494 868 593 849 b 606 1051 610 929 606 1028 z "},"ë":{"ha":638,"x_min":0,"x_max":0,"o":"m 93 1056 b 99 864 92 971 99 918 b 286 874 171 868 269 849 b 282 1051 286 929 282 1028 z m 349 1056 b 354 864 347 971 354 918 b 542 874 426 868 525 849 b 538 1051 542 929 538 1028 z m 224 349 b 596 360 282 338 557 349 b 410 704 607 515 582 675 b 67 588 278 738 115 697 b 36 394 44 526 42 463 b 163 11 29 244 64 81 b 235 -14 185 -1 208 -10 b 554 47 340 -14 492 -42 b 593 264 581 69 586 169 b 418 267 553 275 456 263 b 244 204 425 117 289 118 b 224 324 224 238 225 268 z m 392 564 b 446 474 425 547 446 511 b 358 457 446 446 454 457 b 228 488 221 457 221 449 b 343 578 235 538 256 578 b 392 564 364 578 376 574 z "},"ï":{"ha":493,"x_min":0,"x_max":0,"o":"m 24 1056 b 29 864 22 971 29 918 b 217 874 101 868 200 849 b 213 1051 217 929 213 1028 z m 279 1056 b 285 864 278 971 285 918 b 472 874 357 868 456 849 b 468 1051 472 929 468 1028 z m 319 699 b 193 701 260 697 217 700 b 154 703 183 701 161 704 l 154 701 b 146 0 132 483 164 235 b 342 8 171 7 324 -12 b 343 694 329 232 342 471 l 343 699 z "},"ö":{"ha":647,"x_min":0,"x_max":0,"o":"m 103 1056 b 108 864 101 971 108 918 b 296 874 181 868 279 849 b 292 1051 296 929 292 1028 z m 358 1056 b 364 864 357 971 364 918 b 551 874 436 868 535 849 b 547 1051 551 929 547 1028 z m 85 633 b 63 551 79 613 64 572 b 56 451 57 517 56 485 b 126 51 67 331 26 140 b 246 -10 158 19 199 -1 b 568 51 353 -10 504 -39 b 613 378 604 88 608 269 b 556 653 608 500 608 618 b 401 713 517 690 461 708 b 293 714 363 717 331 710 b 85 633 206 714 111 690 z m 258 469 b 306 500 271 485 286 494 b 433 419 378 517 424 485 b 429 244 444 365 436 304 b 397 199 424 221 413 206 b 238 261 349 172 233 176 b 246 442 242 326 239 382 b 258 469 249 457 253 465 z "},"ü":{"ha":633,"x_min":0,"x_max":0,"o":"m 93 1056 b 99 864 92 971 99 918 b 286 874 171 868 269 849 b 282 1051 286 929 282 1028 z m 349 1056 b 354 864 347 971 354 918 b 542 874 426 868 525 849 b 538 1051 542 929 538 1028 z m 404 75 b 407 1 406 49 403 33 b 490 3 407 -11 475 3 b 588 3 535 7 543 7 b 586 699 594 247 586 471 b 414 690 497 692 478 708 l 414 685 b 413 313 396 564 419 439 b 281 238 406 213 311 222 b 275 240 279 239 276 239 b 240 375 246 263 244 329 b 235 697 233 475 242 613 b 61 692 169 697 126 701 b 90 50 72 503 31 100 b 369 54 167 -15 293 -1 b 404 75 379 61 394 69 z "},"ý":{"ha":671,"x_min":0,"x_max":0,"o":"m 450 1047 b 218 821 385 996 282 881 b 404 815 243 814 344 808 b 544 949 418 843 519 924 l 546 950 z m 253 690 b 47 694 193 697 114 688 b 208 33 104 485 169 257 b 26 -61 226 -90 117 -61 b 35 -246 17 -112 17 -190 b 582 386 507 -274 510 115 b 656 693 604 482 626 582 b 453 693 578 699 515 692 b 361 190 408 582 401 301 b 253 690 321 301 279 557 z "},"ÿ":{"ha":679,"x_min":0,"x_max":0,"o":"m 142 1056 b 147 864 140 971 147 918 b 335 874 219 868 318 849 b 331 1051 335 929 331 1028 z m 397 1056 b 403 864 396 971 403 918 b 590 874 475 868 574 849 b 586 1051 590 929 586 1028 z m 260 690 b 54 694 200 697 121 688 b 215 33 111 485 176 257 b 33 -61 233 -90 124 -61 b 42 -246 24 -112 24 -190 b 589 386 514 -274 517 115 b 663 693 611 482 633 582 b 460 693 585 699 522 692 b 368 190 415 582 408 301 b 260 690 328 301 286 557 z "},"Ì":{"ha":381,"x_min":0,"x_max":0,"o":"m 17 1176 l 18 1175 b 158 1042 44 1149 140 1069 b 344 1047 217 1035 318 1040 b 113 1274 281 1107 178 1222 z m 314 976 b 161 981 231 975 194 979 b 104 983 149 981 114 985 l 104 981 b 93 -6 71 669 119 329 b 346 7 132 6 315 -24 b 347 971 328 322 347 653 l 347 976 z "},"Í":{"ha":418,"x_min":0,"x_max":0,"o":"m 268 976 b 115 981 185 975 149 979 b 58 983 103 981 68 985 l 58 981 b 47 -6 25 669 74 329 b 300 7 86 6 269 -24 b 301 971 282 322 301 653 l 301 976 z m 307 1274 b 75 1047 242 1222 139 1107 b 261 1042 100 1040 201 1035 b 401 1175 275 1069 376 1150 l 403 1176 z "},"Î":{"ha":483,"x_min":0,"x_max":0,"o":"m 244 1275 b 19 1049 163 1199 82 1133 b 168 1043 142 1042 135 1039 b 240 1111 182 1047 226 1104 b 311 1043 258 1100 297 1043 b 471 1050 400 1032 467 1054 z m 319 976 b 167 981 236 975 200 979 b 110 983 154 981 119 985 l 110 981 b 99 -6 76 669 125 329 b 351 7 138 6 321 -24 b 353 971 333 322 353 653 l 353 976 z "},"d":{"ha":633,"x_min":0,"x_max":0,"o":"m 400 961 b 396 660 394 851 390 921 b 129 678 389 693 229 715 b 17 396 47 649 17 525 b 250 4 21 210 40 19 b 379 64 301 -3 351 8 b 393 58 385 75 389 68 b 394 13 393 38 394 31 b 396 3 394 8 394 4 b 583 1 451 -4 526 1 b 575 886 590 268 575 576 l 575 978 b 400 976 514 989 400 981 z m 185 438 b 317 536 194 503 240 536 b 401 376 396 536 401 519 b 301 175 401 260 396 175 b 175 357 222 175 175 264 b 185 438 175 383 175 411 z "},".":{"ha":261,"x_min":0,"x_max":0,"o":"m 208 0 l 211 0 l 211 1 l 211 3 b 219 165 211 29 219 163 b 46 163 194 176 83 178 b 47 1 46 136 40 43 l 51 1 z "},"…":{"ha":725,"x_min":0,"x_max":0,"o":"m 211 0 l 214 0 l 214 1 l 214 3 b 222 165 214 29 222 163 b 49 163 197 176 86 178 b 50 1 49 136 43 43 l 54 1 z m 440 0 l 443 0 l 443 1 l 443 3 b 451 165 443 29 451 163 b 278 163 426 176 315 178 b 279 1 278 133 272 46 l 283 1 z m 671 0 l 674 0 l 674 1 l 674 3 b 682 165 674 29 682 163 b 508 163 657 176 546 178 b 510 1 508 136 503 43 l 514 1 z "},"=":{"ha":621,"x_min":0,"x_max":0,"o":"m 43 453 b 576 444 71 453 549 444 l 578 444 b 574 643 567 507 575 578 l 47 643 b 43 453 47 632 43 490 z m 43 165 b 576 157 71 165 549 157 l 578 157 b 574 356 567 219 575 290 l 47 356 b 43 165 47 344 43 203 z "},"`":{"ha":354,"x_min":0,"x_max":0,"o":"m 18 861 l 19 860 b 160 726 46 833 142 754 b 346 732 218 719 319 725 b 114 958 282 792 179 907 z "},"Ä":{"ha":643,"x_min":0,"x_max":0,"o":"m 251 1053 l 254 1053 l 254 1054 l 254 1056 b 263 1196 254 1081 263 1193 b 111 1194 236 1207 146 1206 b 113 1054 111 1171 106 1090 l 117 1054 z m 493 1053 l 496 1053 l 496 1054 l 496 1056 b 504 1196 496 1081 504 1193 b 353 1194 478 1207 388 1206 b 354 1054 353 1171 347 1090 l 358 1054 z m 519 488 b 406 979 497 581 422 907 b 235 972 283 968 261 976 b 22 3 101 528 33 40 b 25 1 24 1 24 1 b 219 0 151 3 204 -4 b 224 1 221 0 222 1 b 285 233 256 63 260 175 b 371 232 326 233 324 239 b 436 6 396 178 414 65 l 438 6 b 624 0 497 -7 568 -11 l 624 1 z m 378 397 b 275 397 343 397 307 396 b 378 397 314 682 322 876 z "},"Ï":{"ha":439,"x_min":0,"x_max":0,"o":"m 303 976 b 150 981 219 975 183 979 b 93 983 138 981 103 985 l 93 981 b 82 -6 60 669 108 329 b 335 7 121 6 304 -24 b 336 971 317 322 336 653 l 336 976 z m 169 1053 l 172 1053 l 172 1054 l 172 1056 b 181 1196 172 1081 181 1193 b 29 1194 154 1207 64 1206 b 31 1054 29 1171 24 1090 l 35 1054 z m 411 1053 l 414 1053 l 414 1054 l 414 1056 b 422 1196 414 1081 422 1193 b 271 1194 396 1207 306 1206 b 272 1054 271 1171 265 1090 l 276 1054 z "},":":{"ha":263,"x_min":0,"x_max":0,"o":"m 208 0 l 211 0 l 211 1 l 211 3 b 219 165 211 29 219 163 b 46 163 194 176 83 178 b 47 1 46 136 40 43 l 51 1 z m 208 467 l 211 467 l 211 468 l 211 469 b 219 632 211 496 219 629 b 46 629 194 643 83 644 b 47 468 46 603 40 510 l 51 468 z "},"÷":{"ha":611,"x_min":0,"x_max":0,"o":"m 13 238 b 599 231 35 238 576 231 l 600 231 b 597 399 590 285 599 343 l 15 399 b 13 238 15 390 13 269 z m 376 0 l 379 0 l 379 1 l 379 3 b 388 165 379 29 388 163 b 214 163 363 176 251 178 b 215 1 214 136 208 43 l 219 1 z m 376 467 l 379 467 l 379 468 l 379 469 b 388 632 379 496 388 629 b 214 629 363 643 251 644 b 215 468 214 603 208 510 l 219 468 z "},";":{"ha":244,"x_min":0,"x_max":0,"o":"m 196 467 l 199 467 l 199 468 l 199 469 b 207 632 199 496 207 629 b 33 629 182 643 71 644 b 35 468 33 603 28 510 l 39 468 z m 192 -29 b 197 1 193 -19 197 -6 b 199 6 197 3 199 4 l 201 6 l 207 165 l 206 165 b 39 167 140 169 88 182 l 38 167 l 38 165 b 32 6 31 14 32 10 b 36 4 33 4 35 4 l 101 -1 b 74 -136 94 -51 68 -131 b 169 -139 128 -137 160 -135 b 181 -85 174 -121 176 -103 z "},",":{"ha":238,"x_min":0,"x_max":0,"o":"m 189 -29 b 194 1 190 -19 194 -6 b 196 6 194 3 196 4 l 199 6 l 204 165 l 203 165 b 36 167 138 169 85 182 l 35 167 l 35 165 b 29 6 28 14 29 10 b 33 4 31 4 32 4 l 99 -1 b 71 -136 92 -51 65 -131 b 167 -139 125 -137 157 -135 b 178 -85 171 -121 174 -103 z "},"‚":{"ha":286,"x_min":0,"x_max":0,"o":"m 174 -128 b 175 -125 175 -126 175 -125 b 268 211 219 3 224 44 l 268 213 b 111 211 231 214 110 210 b 22 -131 106 185 39 -69 b 172 -128 25 -147 157 -128 z "},"“":{"ha":528,"x_min":0,"x_max":0,"o":"m 124 975 b 122 972 122 974 122 972 b 29 636 78 844 74 803 l 29 635 b 186 636 67 633 188 638 b 275 978 193 661 261 917 b 125 975 271 994 140 975 z m 346 975 b 344 972 344 974 344 972 b 251 636 300 844 296 803 l 251 635 b 408 636 289 633 410 638 b 497 978 415 661 483 917 b 347 975 493 994 363 975 z "},"”":{"ha":528,"x_min":0,"x_max":0,"o":"m 404 644 b 406 647 406 646 406 647 b 499 983 450 775 454 817 l 499 985 b 342 983 461 986 340 982 b 253 642 336 957 269 703 b 403 644 256 625 388 644 z m 182 644 b 183 647 183 646 183 647 b 276 983 228 775 232 817 l 276 985 b 119 983 239 986 118 982 b 31 642 114 957 47 703 b 181 644 33 625 165 644 z "},"‘":{"ha":286,"x_min":0,"x_max":0,"o":"m 174 644 b 175 647 175 646 175 647 b 268 983 219 775 224 817 l 268 985 b 111 983 231 986 110 982 b 22 642 106 957 39 703 b 172 644 25 625 157 644 z "},"’":{"ha":286,"x_min":0,"x_max":0,"o":"m 174 644 b 175 647 175 646 175 647 b 268 983 219 775 224 817 l 268 985 b 111 983 231 986 110 982 b 22 642 106 957 39 703 b 172 644 25 625 157 644 z "},"„":{"ha":528,"x_min":0,"x_max":0,"o":"m 124 203 b 122 200 122 201 122 200 b 29 -136 78 72 74 31 l 29 -137 b 186 -136 67 -139 188 -135 b 275 206 193 -111 261 144 b 125 203 271 222 140 203 z m 346 203 b 344 200 344 201 344 200 b 251 -136 300 72 296 31 l 251 -137 b 408 -136 289 -139 410 -135 b 497 206 415 -111 483 144 b 347 203 493 222 363 203 z "},"¿":{"ha":624,"x_min":0,"x_max":0,"o":"m 433 579 b 428 610 433 589 435 603 l 426 610 b 256 607 369 606 313 614 l 256 606 b 250 558 260 590 254 574 b 182 389 238 493 221 443 b 99 293 154 351 128 333 b 33 146 67 253 40 206 b 335 -126 15 -17 164 -144 b 608 163 493 -119 601 22 l 608 164 b 439 167 553 165 496 172 b 307 90 392 149 389 53 b 376 361 171 136 338 283 b 431 526 411 413 421 467 z m 271 856 l 268 856 l 268 854 l 268 853 b 260 690 268 825 260 694 b 433 693 286 679 393 679 b 432 854 433 719 439 813 l 428 854 z "},"|":{"ha":244,"x_min":0,"x_max":0,"o":"m 201 -39 b 199 1011 201 -8 199 981 l 199 1013 b 46 1008 124 1001 122 1008 l 46 835 l 46 -35 b 189 -39 57 -35 144 -39 z "},"\\":{"ha":547,"x_min":0,"x_max":0,"o":"m 346 10 b 350 3 347 6 349 4 b 524 -1 371 -1 396 3 l 525 -1 b 489 125 542 -1 492 111 b 444 247 476 165 463 207 b 314 608 438 272 425 308 b 261 769 293 663 279 715 b 193 985 257 776 219 881 b 10 974 140 974 54 996 b 18 949 14 964 14 960 b 79 747 25 922 42 869 b 133 594 97 696 117 644 b 236 293 168 493 199 393 b 267 210 246 265 256 238 z "},"%":{"ha":847,"x_min":0,"x_max":0,"o":"m 414 210 b 444 293 425 238 435 265 b 547 594 482 393 513 493 b 601 747 564 644 583 696 b 663 949 639 869 656 922 b 671 974 667 960 667 964 b 488 985 626 996 540 974 b 419 769 461 881 424 776 b 367 608 401 715 388 663 b 236 247 256 308 243 272 b 192 125 218 207 204 165 b 156 -1 189 111 139 -1 l 157 -1 b 331 3 283 3 308 -1 b 335 10 332 4 333 6 z m 29 678 l 29 676 b 40 594 33 650 36 624 b 108 493 50 550 65 521 b 175 475 129 482 151 476 b 340 724 303 468 344 619 b 335 804 342 750 339 775 b 178 949 319 878 272 953 b 75 896 135 947 101 928 b 31 747 38 856 38 799 l 28 713 z m 138 767 l 138 768 b 146 822 136 789 136 807 b 168 840 153 832 160 838 b 210 829 186 850 200 842 b 214 822 211 825 213 826 b 226 657 229 768 231 711 b 225 642 226 651 225 647 b 192 586 221 619 219 596 b 147 613 171 579 147 590 b 144 665 146 631 146 647 z m 506 238 l 506 236 b 517 154 510 210 513 183 b 585 53 526 110 542 81 b 651 35 606 42 628 36 b 817 283 779 28 821 179 b 811 364 818 310 815 335 b 654 508 796 438 749 513 b 551 456 611 507 578 488 b 507 307 514 415 514 358 l 504 272 z m 614 326 l 614 328 b 622 382 613 349 613 367 b 644 400 629 392 636 397 b 686 389 663 410 676 401 b 690 382 688 385 689 386 b 703 217 706 328 707 271 b 701 201 703 211 701 207 b 668 146 697 179 696 156 b 624 172 647 139 624 150 b 621 225 622 190 622 207 z "},"<":{"ha":493,"x_min":0,"x_max":0,"o":"m 464 129 b 207 371 375 201 294 294 b 451 638 278 460 397 568 b 346 733 418 660 378 715 b 267 651 319 707 294 681 b 6 375 182 563 75 463 b 354 28 110 233 243 142 l 356 26 b 426 93 411 75 418 85 l 449 115 z "},">":{"ha":494,"x_min":0,"x_max":0,"o":"m 46 115 l 68 93 b 139 26 75 86 83 75 l 140 28 b 489 375 251 143 382 235 b 228 651 419 463 313 563 b 149 733 200 681 175 707 b 43 638 115 715 76 660 b 288 371 99 568 214 460 b 31 129 200 294 119 201 z "},"–":{"ha":617,"x_min":0,"x_max":0,"o":"m 43 231 b 571 221 74 231 540 221 l 572 221 b 568 494 568 383 568 418 l 47 494 b 43 231 47 482 43 275 z "},"@":{"ha":769,"x_min":0,"x_max":0,"o":"m 536 644 b 454 665 513 660 483 665 b 278 592 382 665 307 629 b 219 438 240 549 221 497 b 260 272 218 386 222 315 b 378 222 290 239 329 222 b 490 260 422 222 460 235 b 515 232 500 247 511 236 b 572 214 532 222 551 214 b 724 328 651 215 711 257 b 732 453 731 371 732 397 l 732 528 b 644 836 732 629 729 760 b 496 906 601 876 550 899 b 381 915 458 911 419 915 b 310 911 358 915 331 915 b 107 819 232 901 158 885 b 38 564 47 743 39 653 l 38 522 b 47 271 38 433 42 365 b 117 74 51 217 82 124 b 303 -28 161 14 229 -18 b 399 -32 333 -31 365 -32 b 536 -21 447 -32 493 -31 b 729 58 589 -14 679 26 l 676 172 b 438 97 610 139 504 101 l 439 97 b 397 96 428 97 413 96 b 260 122 351 96 294 101 b 181 279 210 154 192 206 b 167 454 171 336 167 397 b 168 517 167 475 167 496 b 229 747 172 596 176 690 b 367 797 267 785 317 797 b 404 794 378 797 393 796 b 504 771 436 790 478 783 l 503 771 b 601 567 578 729 597 646 l 601 528 b 603 444 603 501 604 476 b 581 329 603 414 594 340 b 551 474 557 333 551 403 b 553 554 551 501 551 531 b 554 594 553 569 554 583 b 540 642 556 615 550 631 z m 338 401 b 357 499 338 433 336 465 b 442 531 374 532 404 535 b 435 444 438 531 435 461 b 397 358 435 407 429 371 b 338 397 365 343 338 364 z "},"'":{"ha":243,"x_min":0,"x_max":0,"o":"m 47 978 l 47 975 b 44 639 40 846 44 807 l 44 638 b 201 639 82 636 203 640 b 199 981 201 665 199 919 b 49 978 190 997 64 978 z "},"\"":{"ha":518,"x_min":0,"x_max":0,"o":"m 50 978 l 50 975 b 47 639 43 846 47 807 l 47 638 b 204 639 85 636 206 640 b 201 981 204 665 201 919 b 51 978 193 997 67 978 z m 318 978 l 318 975 b 315 639 311 846 315 807 l 315 638 b 472 639 353 636 474 640 b 469 981 472 665 469 919 b 319 978 461 997 335 978 z "},"—":{"ha":947,"x_min":0,"x_max":0,"o":"m 44 222 b 901 213 75 222 871 213 l 903 213 b 899 494 892 288 899 418 l 764 494 l 49 494 b 44 222 49 481 44 267 z "},"_":{"ha":878,"x_min":0,"x_max":0,"o":"m 43 -58 b 46 -206 43 -103 46 -194 b 829 -208 51 -206 765 -208 b 835 -51 829 -132 824 -126 l 833 -51 b 43 -58 801 -51 75 -58 z "},"a":{"ha":672,"x_min":0,"x_max":0,"o":"m 617 692 b 481 699 557 696 513 697 b 414 697 469 699 414 701 b 408 626 414 675 407 656 b 267 690 382 690 333 690 b 33 369 136 686 33 554 b 238 -3 33 221 94 -3 b 421 78 303 -3 376 33 b 415 29 421 60 415 50 b 432 -1 415 14 419 3 b 492 3 453 -1 471 3 b 582 -1 521 3 553 -1 l 599 -1 b 617 56 621 3 617 32 b 619 644 629 254 614 444 l 619 658 b 617 692 619 669 618 681 z m 213 415 b 342 504 222 461 265 504 b 414 360 418 504 414 489 b 328 192 414 256 419 192 b 204 342 250 192 204 258 b 213 415 204 365 206 392 z "},"Ç":{"ha":682,"x_min":0,"x_max":0,"o":"m 43 728 b 39 269 33 576 35 413 l 39 256 b 236 -10 43 121 86 -28 l 236 -14 b 200 -174 229 -67 200 -154 b 201 -178 200 -176 200 -178 b 325 -176 235 -183 282 -172 l 325 -174 b 367 -12 340 -125 357 -53 l 368 -14 l 371 -14 b 610 375 564 -3 665 201 b 429 381 558 390 474 381 b 413 250 424 338 431 289 b 317 203 394 213 356 199 b 243 303 272 215 253 258 b 240 667 232 424 235 544 b 332 750 244 715 281 754 b 346 749 339 750 343 750 b 421 568 428 731 399 625 l 424 568 b 607 565 489 558 544 550 b 611 567 608 565 610 567 b 450 943 656 707 586 888 b 264 963 393 964 329 964 b 133 939 221 964 171 963 b 44 743 76 890 51 819 b 43 728 43 739 43 735 z "},"ç":{"ha":635,"x_min":0,"x_max":0,"o":"m 410 -17 b 565 49 475 -12 532 0 b 604 267 590 74 597 171 b 428 269 565 278 465 265 b 394 196 422 246 413 208 b 235 258 351 167 228 172 b 243 439 239 324 236 382 b 256 467 246 454 250 463 b 303 497 268 482 283 492 b 431 408 375 515 421 474 b 607 401 478 401 560 390 b 553 651 603 524 606 614 b 399 710 514 689 458 706 b 290 711 360 714 328 707 b 82 631 203 711 108 688 b 60 549 76 613 61 569 b 51 449 54 515 51 482 b 124 49 67 328 24 138 b 243 -12 156 17 196 -4 l 261 -14 b 194 -204 239 -82 250 -57 b 346 -206 194 -207 317 -206 l 346 -204 b 410 -17 353 -171 399 -57 z m 608 -122 l 608 -124 b 610 -125 608 -125 608 -125 z "},"Æ":{"ha":1049,"x_min":0,"x_max":0,"o":"m 1003 190 b 644 199 892 200 767 193 l 643 199 b 635 375 625 235 631 318 b 803 389 650 390 749 378 b 800 582 803 454 813 522 b 632 590 746 592 683 581 b 628 753 614 639 632 701 b 999 771 749 771 881 744 l 999 774 b 999 971 999 839 1006 906 l 999 972 l 999 974 b 246 963 974 974 497 974 b 36 -1 31 51 110 413 b 44 0 40 -1 40 0 b 235 1 111 7 174 1 b 239 4 236 3 238 3 b 283 161 250 54 268 110 b 285 164 285 163 285 164 l 288 164 b 383 161 371 164 336 161 l 383 160 b 422 7 393 108 410 61 b 992 6 601 -4 801 6 l 994 8 b 1003 186 1004 65 1007 124 z m 386 399 b 294 394 367 383 321 403 l 293 394 l 292 394 b 336 585 299 476 303 493 l 338 581 b 386 399 353 521 376 458 z "},"æ":{"ha":1088,"x_min":0,"x_max":0,"o":"m 701 346 b 1053 357 757 335 1015 346 b 878 681 1064 503 1042 651 b 596 626 776 707 664 686 b 149 472 492 725 121 692 b 321 471 185 454 276 464 b 489 488 321 565 467 588 b 493 372 496 467 489 453 b 156 324 401 424 215 417 b 517 29 13 81 300 -93 b 589 82 546 47 568 65 b 713 4 617 43 657 14 b 1014 60 811 4 954 -22 b 1050 265 1039 82 1043 175 b 886 268 1014 276 921 264 b 722 208 893 125 767 132 b 701 322 701 240 703 268 z m 339 135 b 293 268 235 150 261 236 b 453 278 342 311 397 304 b 339 135 497 251 515 106 z m 861 549 b 911 463 893 533 911 497 b 829 447 911 435 921 447 b 706 476 699 447 699 439 b 815 561 714 522 732 561 b 861 549 833 561 846 556 z "},"Ø":{"ha":669,"x_min":0,"x_max":0,"o":"m 628 603 b 565 896 635 704 635 815 b 590 994 561 928 589 957 b 403 1004 558 1015 461 997 l 401 1004 b 388 974 388 1004 394 978 b 138 932 306 981 206 985 l 133 928 b 78 846 111 906 93 878 b 47 646 46 785 54 713 b 83 99 36 461 38 281 b 85 96 83 97 85 97 b 83 93 85 94 83 94 b 47 -29 74 67 40 -18 b 231 -25 104 -25 194 -32 l 229 -25 l 231 -24 b 249 -3 246 -12 249 -4 l 250 -3 l 251 -3 b 404 4 296 3 353 -1 b 604 182 506 14 582 82 b 628 603 631 321 626 460 z m 197 388 b 200 500 190 410 196 467 b 204 532 201 511 203 521 b 221 708 214 592 211 649 b 315 782 236 746 278 778 l 325 782 l 326 782 l 326 781 b 197 388 286 649 235 506 z m 449 543 b 443 260 449 483 472 382 b 322 181 429 213 360 188 b 319 182 321 181 321 182 b 449 549 360 297 411 449 z "},"ø":{"ha":497,"x_min":0,"x_max":0,"o":"m 457 414 b 414 622 463 486 463 565 b 431 692 410 644 429 665 b 297 700 407 707 340 692 l 296 700 b 288 678 286 700 292 682 b 108 649 228 685 157 686 l 104 644 b 65 586 89 629 76 610 b 44 444 43 543 50 490 b 69 56 35 311 38 183 b 71 53 69 54 71 54 l 69 51 b 44 -36 63 31 40 -28 b 175 -33 85 -36 150 -40 l 174 -33 l 175 -32 b 188 -18 183 -24 188 -19 l 189 -18 b 299 -12 221 -14 261 -17 b 442 114 369 -6 425 43 b 457 414 460 214 457 313 z m 151 261 b 153 340 144 276 151 317 b 157 364 154 347 156 354 b 168 489 161 407 161 446 b 236 542 179 515 208 538 l 242 542 l 243 542 l 243 540 b 151 261 214 446 178 344 z m 331 372 b 326 169 331 328 349 257 b 239 113 315 136 267 118 b 238 114 239 114 239 114 b 331 375 267 196 301 306 z "},"#":{"ha":911,"x_min":0,"x_max":0,"o":"m 878 664 l 878 669 b 790 671 849 669 819 671 b 847 882 842 849 851 860 b 690 888 796 892 742 878 l 689 888 l 688 888 b 618 675 658 776 633 699 b 453 675 551 676 503 674 b 514 879 501 836 514 871 b 349 886 394 883 358 883 l 349 885 b 283 676 338 835 294 699 b 282 674 283 675 282 675 b 239 674 271 672 251 674 b 40 681 49 669 42 682 l 43 531 b 235 532 225 532 235 532 b 178 357 190 403 188 367 b 25 364 53 353 28 361 b 29 213 26 314 25 261 b 121 215 57 211 89 215 b 50 0 94 144 65 78 b 199 0 133 4 181 1 b 210 3 204 0 208 1 b 229 51 221 24 224 33 b 294 218 274 167 265 132 b 456 218 421 221 456 218 l 457 218 b 386 1 439 150 407 83 b 544 1 499 -3 540 1 l 547 1 l 549 3 b 631 214 585 69 622 201 l 633 214 l 635 214 b 872 219 782 218 813 213 l 872 222 b 863 351 865 306 874 322 b 682 357 768 358 703 356 b 740 532 703 417 719 472 l 888 536 z m 343 357 b 403 535 364 417 382 475 l 403 536 l 406 536 b 571 533 460 536 511 535 l 572 533 l 574 533 l 574 532 b 518 363 557 471 531 419 b 517 358 518 361 517 360 z "},"&":{"ha":800,"x_min":0,"x_max":0,"o":"m 776 47 l 776 60 b 707 179 767 108 733 146 l 707 178 b 671 229 690 200 671 218 b 694 285 671 239 685 264 b 708 311 700 294 704 306 b 719 340 713 324 715 331 l 719 339 b 760 488 740 388 760 428 b 708 539 760 531 740 539 l 610 539 b 529 475 550 539 533 510 b 515 419 529 454 525 435 b 457 561 444 513 457 551 b 467 579 457 563 460 569 b 499 628 476 596 488 611 b 572 804 533 682 572 736 b 333 1015 572 915 475 1015 b 65 806 200 1015 65 924 b 172 569 65 721 128 629 b 33 306 101 503 33 404 b 313 -1 33 157 129 -1 b 511 53 385 3 456 15 b 663 -1 565 1 596 -1 l 669 -1 b 775 40 713 -1 764 0 z m 333 858 b 361 829 354 858 361 846 b 317 696 361 763 350 701 l 317 697 b 274 801 299 693 274 765 b 333 858 274 839 296 858 z m 372 197 b 335 193 363 196 350 193 b 244 278 268 193 249 239 b 297 399 238 321 263 394 b 407 214 456 421 407 236 b 372 197 407 213 383 201 z "},"*":{"ha":514,"x_min":0,"x_max":0,"o":"m 443 575 b 483 625 450 585 488 610 b 386 735 476 629 393 735 b 478 849 397 765 474 815 b 361 965 468 858 368 956 b 258 871 365 969 261 874 b 149 968 243 882 158 965 l 147 967 b 26 851 122 949 40 856 b 122 733 33 835 111 756 b 124 726 124 729 125 728 b 28 619 93 692 39 638 b 147 510 68 586 99 556 b 157 515 151 510 153 511 b 249 597 183 533 233 590 b 322 529 256 594 308 543 b 349 503 326 528 344 508 b 353 503 350 501 351 501 z "},"•":{"ha":339,"x_min":0,"x_max":0,"o":"m 54 279 b 121 246 69 258 94 242 l 122 246 b 201 250 150 250 175 249 b 251 260 218 251 236 253 b 294 321 278 271 289 294 b 299 443 299 361 304 403 b 233 507 294 475 265 497 b 185 511 218 513 201 511 b 119 511 163 511 140 513 b 107 510 115 511 111 510 b 86 504 97 508 90 506 b 67 493 79 501 74 497 b 50 471 60 489 54 481 b 46 460 46 467 47 464 b 40 388 42 438 40 411 b 44 304 39 360 40 332 b 54 279 46 294 50 286 z "},"Ñ":{"ha":696,"x_min":0,"x_max":0,"o":"m 656 24 b 651 531 650 190 656 363 l 653 975 b 436 971 631 979 504 986 l 436 967 b 433 658 418 863 451 725 b 264 954 382 746 271 918 l 264 956 b 61 965 207 971 106 983 b 53 1 35 654 57 315 b 54 0 53 0 53 0 b 274 -1 119 11 217 -21 b 275 0 275 -1 275 -1 b 282 408 269 144 272 269 b 449 -7 331 281 388 128 l 450 -7 b 654 4 506 4 640 -28 z m 239 1046 b 239 1101 232 1068 232 1081 b 260 1128 243 1113 250 1121 b 308 1140 278 1135 293 1140 b 363 1108 336 1140 350 1129 b 531 1047 389 1042 471 1026 b 586 1086 551 1054 569 1067 b 636 1263 619 1135 649 1203 b 635 1264 635 1263 635 1263 l 633 1265 b 519 1261 594 1264 557 1265 b 413 1188 508 1228 468 1140 b 347 1254 389 1203 376 1236 b 160 1228 288 1294 210 1278 b 76 1049 125 1189 88 1089 b 144 1050 100 1050 124 1050 b 239 1044 182 1050 221 1049 z "},"å":{"ha":653,"x_min":0,"x_max":0,"o":"m 451 825 b 460 1004 474 881 476 947 b 350 1044 439 1033 389 1043 b 242 1017 307 1049 268 1040 b 226 989 235 1007 229 999 b 228 831 214 939 218 882 b 290 790 238 807 264 792 b 368 792 317 789 342 788 b 451 825 400 793 435 799 z m 304 975 b 346 983 317 981 331 983 b 400 964 367 983 385 979 b 410 933 404 957 408 946 b 403 871 411 913 407 889 b 343 850 393 850 364 851 l 329 850 b 294 863 315 850 304 854 b 281 924 279 878 281 903 b 283 947 281 931 282 938 b 304 975 286 960 293 968 z m 607 692 b 471 699 547 696 503 697 b 404 697 460 699 404 701 b 399 626 404 675 397 656 b 257 690 372 690 324 690 b 24 369 126 686 24 554 b 228 -3 24 221 85 -3 b 411 78 293 -3 367 33 b 406 29 411 60 406 50 b 422 -1 406 14 410 3 b 482 3 443 -1 461 3 b 572 -1 511 3 543 -1 l 589 -1 b 607 56 611 3 607 32 b 610 644 619 254 604 444 l 610 658 b 607 692 610 669 608 681 z m 203 415 b 332 504 213 461 256 504 b 404 360 408 504 404 489 b 318 192 404 256 410 192 b 194 342 240 192 194 258 b 203 415 194 365 196 392 z "},"Ý":{"ha":632,"x_min":0,"x_max":0,"o":"m 624 957 b 429 951 590 964 479 958 b 426 950 428 950 426 950 b 317 713 394 874 354 779 b 235 953 282 783 256 869 b 24 956 178 975 82 956 b 197 478 61 799 157 640 l 197 475 b 17 -3 135 314 65 147 l 19 -3 b 217 -1 85 -7 167 4 b 624 956 328 324 519 625 z m 440 1274 b 208 1047 375 1222 272 1107 b 394 1042 233 1040 335 1035 b 535 1175 408 1069 510 1150 l 536 1176 z "},"¢":{"ha":490,"x_min":0,"x_max":0,"o":"m 178 553 b 217 656 182 589 172 656 b 218 286 221 535 219 407 b 179 368 190 301 181 336 b 178 553 174 429 174 490 z m 268 286 b 268 658 268 457 264 507 b 300 538 307 635 292 576 b 439 533 349 528 389 526 l 439 535 b 269 811 476 651 400 807 l 268 811 b 268 901 264 838 268 868 l 268 903 b 219 897 253 914 225 907 b 217 814 218 869 222 836 b 38 614 94 843 26 718 b 43 244 38 474 28 379 b 218 129 54 160 147 118 b 221 42 219 92 217 69 b 263 40 231 26 253 36 b 267 42 264 40 265 42 b 268 129 272 68 264 100 l 268 131 l 271 131 b 443 286 353 142 432 203 b 438 400 447 324 436 363 l 438 401 b 311 407 403 413 344 403 b 269 286 304 367 318 304 z "},"£":{"ha":658,"x_min":0,"x_max":0,"o":"m 189 514 b 18 504 131 506 74 526 b 17 500 17 503 17 501 b 19 329 14 490 19 461 b 196 326 26 326 54 331 b 199 15 200 232 206 110 b 629 3 217 0 343 3 b 640 218 631 10 631 64 b 383 233 626 219 411 232 b 368 321 379 238 361 310 b 551 322 397 321 417 326 b 553 507 540 333 564 422 l 551 507 b 369 508 528 499 508 501 b 369 936 374 657 374 786 l 369 938 b 207 929 321 926 219 929 b 201 514 200 908 194 676 l 200 514 l 193 514 z "},"¥":{"ha":725,"x_min":0,"x_max":0,"o":"m 642 347 b 639 469 636 379 640 432 l 639 471 l 638 471 b 503 483 613 485 525 465 b 707 957 585 635 653 796 b 513 951 669 964 564 958 b 507 949 511 950 508 950 b 397 711 475 871 435 778 b 311 961 360 790 338 882 b 111 961 243 968 178 954 b 279 476 140 804 231 644 b 281 474 279 475 281 475 b 36 467 197 469 115 476 l 33 467 b 33 349 33 421 28 389 b 225 340 86 331 172 344 l 226 340 l 226 339 b 225 335 225 338 225 336 b 200 281 215 314 210 299 l 200 279 b 39 276 154 281 96 272 b 32 154 29 250 33 194 l 32 153 b 149 140 64 135 118 151 b 100 1 133 96 104 39 l 104 1 b 299 0 169 -4 247 11 l 300 0 l 300 1 b 360 147 321 50 336 104 b 642 154 456 151 560 156 b 639 281 635 185 639 246 b 411 281 572 285 488 281 l 413 282 b 449 344 428 303 428 335 b 642 346 511 343 588 353 z "},"Ÿ":{"ha":639,"x_min":0,"x_max":0,"o":"m 631 957 b 436 951 597 964 486 958 b 433 950 435 950 433 950 b 324 713 401 874 361 779 b 242 953 289 783 263 869 b 31 956 185 975 89 956 b 204 478 68 799 164 640 l 204 475 b 24 -3 142 314 72 147 l 26 -3 b 224 -1 92 -7 174 4 b 631 956 335 324 526 625 z m 272 1053 l 275 1053 l 275 1054 l 275 1056 b 283 1196 275 1081 283 1193 b 132 1194 257 1207 167 1206 b 133 1054 132 1171 126 1090 l 138 1054 z m 514 1053 l 517 1053 l 517 1054 l 517 1056 b 525 1196 517 1081 525 1193 b 374 1194 499 1207 408 1206 b 375 1054 374 1171 368 1090 l 379 1054 z "},"œ":{"ha":1013,"x_min":0,"x_max":0,"o":"m 689 -1 b 925 44 810 -19 904 17 b 964 261 951 67 957 167 b 789 264 924 272 826 260 b 615 201 796 114 660 115 b 594 321 594 235 596 265 l 594 346 b 967 357 653 335 928 346 b 801 693 978 513 936 671 b 517 618 726 689 601 714 b 269 693 483 713 336 693 b 36 369 139 689 36 556 b 240 -3 36 221 97 -3 b 508 107 304 -3 464 -11 b 669 1 517 107 546 21 z m 763 561 b 817 471 796 544 817 508 b 729 454 817 443 825 454 b 599 485 592 454 592 446 b 714 575 606 535 626 575 b 763 561 735 575 747 571 z m 196 485 b 313 567 206 531 236 567 b 411 415 389 567 411 544 b 286 132 411 311 429 121 b 181 392 175 139 181 308 b 196 485 181 415 189 461 z "},"˜":{"ha":624,"x_min":0,"x_max":0,"o":"m 186 692 b 186 744 181 715 179 729 b 210 771 190 754 199 764 b 254 785 228 781 242 785 b 311 753 283 786 296 771 b 481 693 340 689 415 671 b 533 735 504 703 518 714 b 586 907 569 779 601 851 b 583 910 586 908 585 910 b 469 906 543 908 508 910 b 364 835 458 874 414 785 b 296 900 338 851 325 879 b 107 874 239 942 156 922 b 24 694 74 833 35 736 b 92 696 47 696 71 696 b 186 692 129 696 168 696 z "},"†":{"ha":346,"x_min":0,"x_max":0,"o":"m 225 338 b 219 700 219 439 224 578 l 221 700 b 336 703 260 699 310 704 l 336 704 b 335 811 332 736 333 779 b 222 811 297 817 261 813 l 222 814 b 224 965 226 871 218 914 b 133 961 194 972 156 968 b 128 814 129 917 128 864 b 13 807 96 804 50 813 b 14 701 14 781 10 728 b 128 694 46 683 99 699 b 133 332 132 594 122 414 b 225 336 160 336 201 335 z "},"‡":{"ha":358,"x_min":0,"x_max":0,"o":"m 19 592 b 22 486 24 565 15 508 b 133 479 56 475 104 486 b 135 336 129 440 135 358 l 136 336 b 231 340 168 336 199 335 b 228 485 226 396 232 450 l 231 485 b 343 490 274 485 317 489 l 343 492 b 340 599 339 521 342 567 b 231 597 314 603 263 601 b 228 703 226 626 224 671 l 229 703 b 342 707 268 699 319 711 b 340 815 340 736 340 783 b 229 815 306 821 268 817 b 228 967 231 871 226 915 b 138 963 199 974 160 969 l 138 961 b 133 815 136 913 132 865 b 19 810 100 811 58 815 b 24 703 24 785 13 726 b 133 699 57 692 106 703 l 133 697 b 133 596 138 657 135 633 b 19 592 99 594 60 597 z "},"Œ":{"ha":1185,"x_min":0,"x_max":0,"o":"m 1146 190 b 790 197 1033 196 911 193 l 788 197 b 785 379 765 231 775 372 l 786 379 b 947 379 850 379 874 383 l 949 379 l 949 381 b 949 575 949 449 954 510 b 947 579 949 576 947 578 b 778 586 893 586 832 581 b 771 746 757 629 775 696 l 772 747 b 1140 765 889 767 1019 743 b 1144 969 1146 831 1146 904 b 454 968 1096 969 738 963 b 214 946 368 964 289 990 b 69 700 125 900 71 806 b 75 151 65 518 35 329 b 275 -14 107 64 169 -3 b 622 -3 397 -29 490 -7 b 1132 4 804 8 954 0 l 1133 4 b 1146 188 1151 58 1150 126 z m 482 692 b 493 628 489 671 492 649 b 479 358 497 538 489 451 b 410 196 469 296 458 239 b 296 188 375 169 328 158 b 240 315 261 219 244 278 b 236 572 229 400 247 483 b 239 672 236 601 235 635 b 285 765 244 711 258 744 b 431 763 322 792 390 789 b 472 713 447 751 461 735 b 482 692 476 706 478 699 z "},"ƒ":{"ha":649,"x_min":0,"x_max":0,"o":"m 193 443 l 200 443 l 201 443 b 197 0 194 282 190 19 b 360 -8 210 0 311 3 l 360 -7 b 369 449 364 143 374 299 b 551 450 508 456 528 458 l 553 450 b 551 635 557 557 540 622 b 368 636 417 631 397 636 b 374 696 360 649 371 690 b 631 711 400 696 618 707 b 619 926 624 867 619 918 b 189 914 333 926 206 928 b 196 631 196 819 200 725 b 19 628 54 626 26 631 b 17 457 19 496 14 467 b 18 453 17 456 17 454 b 189 443 72 431 132 447 z "},"~":{"ha":799,"x_min":0,"x_max":0,"o":"m 236 186 b 236 258 229 215 226 232 b 265 292 240 271 250 282 b 328 308 288 303 308 308 b 399 268 365 310 382 292 b 618 188 436 183 535 157 b 690 239 646 197 669 214 b 757 468 735 303 772 389 l 753 472 b 603 467 703 471 651 471 b 464 371 592 424 533 308 b 379 460 433 393 417 433 b 133 425 301 511 196 488 b 25 189 86 371 39 243 b 114 190 57 190 86 190 b 236 185 163 190 214 190 z "},"©":{"ha":774,"x_min":0,"x_max":0,"o":"m 690 346 b 621 768 706 497 747 679 b 604 779 615 772 610 775 b 489 824 567 803 528 817 b 263 828 415 839 339 832 b 94 739 197 818 135 790 b 43 619 64 703 47 663 b 50 343 36 525 35 433 b 192 176 60 265 110 214 b 342 157 240 161 290 157 b 624 233 439 164 550 160 b 690 346 657 265 679 303 z m 582 669 b 607 564 608 638 606 601 b 601 415 608 514 606 464 b 489 271 594 351 561 282 b 286 256 424 258 347 261 b 147 365 215 260 147 303 b 144 613 142 444 133 529 b 256 725 151 667 193 714 b 263 726 260 725 258 726 b 468 726 331 735 400 735 b 582 669 517 717 561 696 z m 332 592 b 358 601 338 597 351 597 b 399 528 399 601 394 558 b 476 525 425 524 447 521 b 310 685 510 626 406 714 b 282 671 300 681 289 676 b 253 624 269 660 260 644 b 246 589 249 614 244 601 b 249 364 244 474 244 415 b 369 294 253 304 321 288 b 475 450 449 294 497 376 b 401 453 453 457 422 451 b 397 400 400 435 401 417 b 356 382 388 385 372 381 b 326 432 335 389 328 410 b 328 583 322 481 328 578 b 332 592 329 588 331 590 z "},"ª":{"ha":381,"x_min":0,"x_max":0,"o":"m 331 1004 b 261 1008 299 1006 278 1007 b 226 1007 256 1007 226 1011 b 224 971 226 996 224 986 b 151 1004 213 1004 183 1004 b 33 840 85 1004 33 935 b 136 650 33 763 63 650 b 231 692 169 650 208 668 b 226 667 231 682 226 678 b 235 651 226 658 229 653 b 267 653 246 651 256 653 b 313 651 282 653 297 651 l 321 651 b 331 681 333 653 331 668 b 333 982 338 782 329 878 l 333 988 b 331 1004 333 993 331 999 z m 125 863 b 190 908 129 889 151 908 b 226 836 231 908 226 901 b 183 749 226 782 229 749 b 119 826 146 749 119 783 b 125 863 119 839 119 851 z "},"¨":{"ha":485,"x_min":0,"x_max":0,"o":"m 189 724 l 192 724 l 192 725 l 192 726 b 200 867 192 751 200 864 b 49 865 174 878 83 876 b 50 725 49 842 43 761 l 54 725 z m 431 724 l 433 724 l 433 725 l 433 726 b 442 867 433 751 442 864 b 290 865 415 878 325 876 b 292 725 290 842 285 761 l 296 725 z "},"ˆ":{"ha":482,"x_min":0,"x_max":0,"o":"m 240 960 b 15 733 158 883 78 818 b 164 728 138 726 131 724 b 236 796 178 732 222 789 b 307 728 254 785 293 728 b 467 735 396 717 463 739 z "},"®":{"ha":767,"x_min":0,"x_max":0,"o":"m 686 329 b 694 381 692 346 690 364 b 621 768 713 526 735 683 b 604 779 615 772 610 775 b 489 824 567 803 528 817 b 263 828 415 839 339 832 b 94 739 197 818 135 790 b 43 619 64 703 47 663 b 50 343 36 525 35 433 b 192 176 60 265 110 214 b 342 157 240 161 290 157 b 624 233 439 164 550 160 b 686 329 653 261 674 293 z m 582 669 b 607 564 608 638 606 601 b 601 415 608 514 606 464 b 489 271 594 351 561 282 l 468 267 b 250 261 394 261 318 251 b 214 274 238 264 225 268 b 143 400 154 297 144 346 b 140 567 142 454 136 511 l 144 613 b 256 725 151 667 193 714 b 263 726 260 725 258 726 b 468 726 331 735 400 735 b 582 669 517 717 561 696 z m 511 300 b 411 468 489 361 444 414 l 411 469 l 413 469 l 415 469 b 488 518 450 471 472 490 b 389 700 533 599 476 693 b 240 692 332 704 281 697 b 243 297 246 654 247 297 b 342 304 249 297 315 297 b 339 442 342 333 331 407 l 340 439 b 419 297 372 403 401 333 l 421 297 b 511 300 453 296 485 300 z m 322 614 b 393 613 349 624 372 628 b 381 543 414 596 410 550 b 325 543 364 539 346 542 l 324 543 b 322 614 322 561 324 593 z "},"°":{"ha":418,"x_min":0,"x_max":0,"o":"m 113 569 b 269 564 163 554 215 554 b 297 571 279 565 288 567 b 382 736 367 596 382 671 b 379 797 382 757 383 776 b 346 863 375 824 367 846 b 307 886 335 872 322 881 b 282 896 297 890 292 892 b 225 903 264 901 246 903 b 171 901 207 903 192 903 b 153 900 165 901 158 900 b 47 817 103 890 63 863 b 43 667 35 771 39 715 b 51 626 44 654 46 642 b 113 569 61 603 82 585 z m 160 817 b 268 814 193 822 231 825 b 290 797 276 811 283 806 b 301 738 306 779 306 758 b 296 694 300 722 300 710 b 251 643 292 668 283 647 l 250 643 b 239 642 246 643 243 642 b 164 639 213 638 190 638 b 122 690 138 643 122 664 b 124 775 122 718 119 746 b 160 817 128 796 140 810 z "},"‰":{"ha":1189,"x_min":0,"x_max":0,"o":"m 418 210 b 449 293 429 238 439 265 b 551 594 486 393 517 493 b 606 747 568 644 588 696 b 667 949 643 869 660 922 b 675 974 671 960 671 964 b 492 985 631 996 544 974 b 424 769 465 881 428 776 b 371 608 406 715 392 663 b 240 247 260 308 247 272 b 196 125 222 207 208 165 b 160 -1 193 111 143 -1 l 161 -1 b 335 3 288 3 313 -1 b 339 10 336 4 338 6 z m 33 678 l 33 676 b 44 594 38 650 40 624 b 113 493 54 550 69 521 b 179 475 133 482 156 476 b 344 724 307 468 349 619 b 339 804 346 750 343 775 b 182 949 324 878 276 953 b 79 896 139 947 106 928 b 35 747 42 856 42 799 l 32 713 z m 142 767 l 142 768 b 150 822 140 789 140 807 b 172 840 157 832 164 838 b 214 829 190 850 204 842 b 218 822 215 825 217 826 b 231 657 233 768 235 711 b 229 642 231 651 229 647 b 196 586 225 619 224 596 b 151 613 175 579 151 590 b 149 665 150 631 150 647 z m 510 207 l 510 206 b 521 124 514 179 517 153 b 589 22 531 79 546 50 b 656 4 610 11 632 6 b 821 253 783 -3 825 149 b 815 333 822 279 819 304 b 658 478 800 407 753 482 b 556 425 615 476 582 457 b 511 276 518 385 518 328 l 508 242 z m 618 296 l 618 297 b 626 351 617 318 617 336 b 649 369 633 361 640 367 b 690 358 667 379 681 371 b 694 351 692 354 693 356 b 707 186 710 297 711 240 b 706 171 707 181 706 176 b 672 115 701 149 700 125 b 628 142 651 108 628 119 b 625 194 626 160 626 176 z m 854 207 l 854 206 b 865 124 858 179 861 153 b 933 22 875 79 890 50 b 1000 4 954 11 976 6 b 1165 253 1128 -3 1169 149 b 1160 333 1167 279 1164 304 b 1003 478 1144 407 1097 482 b 900 425 960 476 926 457 b 856 276 863 385 863 328 l 853 242 z m 963 296 l 963 297 b 971 351 961 318 961 336 b 993 369 978 361 985 367 b 1035 358 1011 379 1025 371 b 1039 351 1036 354 1038 356 b 1051 186 1054 297 1056 240 b 1050 171 1051 181 1050 176 b 1017 115 1046 149 1044 125 b 972 142 996 108 972 119 b 969 194 971 160 971 176 z "},"Å":{"ha":644,"x_min":0,"x_max":0,"o":"m 422 1079 b 431 1258 444 1135 447 1201 b 321 1299 410 1288 360 1297 b 213 1271 278 1303 239 1294 b 197 1243 206 1261 200 1253 b 199 1085 185 1193 189 1136 b 261 1044 208 1061 235 1046 b 339 1046 288 1043 313 1042 b 422 1079 371 1047 406 1053 z m 275 1229 b 317 1238 288 1235 301 1238 b 371 1218 338 1238 356 1233 b 381 1188 375 1211 379 1200 b 374 1125 382 1167 378 1143 b 314 1104 364 1104 335 1106 l 300 1104 b 265 1117 286 1104 275 1108 b 251 1178 250 1132 251 1157 b 254 1201 251 1185 253 1192 b 275 1229 257 1214 264 1222 z m 519 488 b 406 979 497 581 422 907 b 235 972 283 968 261 976 b 22 3 101 528 33 40 b 25 1 24 1 24 1 b 219 0 151 3 204 -4 b 224 1 221 0 222 1 b 285 233 256 63 260 175 b 371 232 326 233 324 239 b 436 6 396 178 414 65 l 438 6 b 624 0 497 -7 568 -11 l 624 1 z m 378 397 b 275 397 343 397 307 396 b 378 397 314 682 322 876 z "},"º":{"ha":353,"x_min":0,"x_max":0,"o":"m 69 842 b 39 656 32 786 35 718 b 125 472 39 582 43 506 b 168 465 140 468 156 465 b 317 692 283 458 324 596 b 313 765 318 715 317 739 b 171 899 301 833 253 903 b 75 849 128 897 101 878 b 69 842 74 847 71 846 z m 161 567 b 136 604 143 571 142 589 b 132 738 125 647 126 686 b 140 782 133 758 136 776 b 161 799 144 789 151 797 b 199 789 176 804 189 801 b 215 654 218 763 219 696 b 208 594 214 633 214 615 b 183 565 204 583 199 571 b 161 567 176 563 169 563 z "},"ñ":{"ha":642,"x_min":0,"x_max":0,"o":"m 236 619 b 233 693 235 646 238 661 b 150 692 233 706 165 692 b 53 692 106 688 97 688 b 54 -4 46 447 54 224 b 226 4 143 3 163 -14 l 226 10 b 228 382 242 132 221 254 b 360 457 235 482 329 472 b 365 454 361 456 364 456 b 400 319 394 432 396 365 b 406 -3 407 219 399 82 b 579 3 471 -3 514 -7 b 550 644 568 194 608 592 b 271 640 474 710 347 696 b 236 619 261 633 246 625 z m 199 819 b 199 875 192 842 192 854 l 203 883 b 274 914 218 907 253 914 b 322 882 297 913 311 900 b 464 814 346 825 407 804 b 596 1035 561 829 607 949 l 596 1036 b 594 1038 594 1036 594 1036 l 593 1039 b 479 1035 554 1038 517 1039 b 372 961 468 1001 428 914 b 307 1028 349 976 336 1010 b 119 1001 247 1068 169 1051 b 36 822 85 963 47 863 b 104 824 60 824 83 824 b 199 818 142 824 181 822 z "},"¼":{"ha":824,"x_min":0,"x_max":0,"o":"m 299 11 b 633 978 417 317 522 650 l 633 979 b 506 985 614 994 526 978 b 172 1 417 656 283 339 b 293 1 189 6 278 -3 l 296 7 b 299 11 297 8 297 10 z m 797 250 b 758 253 786 250 771 257 b 756 494 753 271 757 493 l 754 494 b 643 493 740 494 651 493 b 494 264 543 342 506 282 b 490 258 493 261 492 260 l 490 257 b 497 157 489 203 496 163 l 497 156 b 640 153 500 153 629 157 b 639 4 640 146 639 7 b 743 8 704 4 738 3 b 754 142 744 19 756 143 l 756 142 b 792 144 768 146 779 140 l 793 144 z m 665 253 l 665 251 l 664 251 b 594 251 651 250 594 250 b 668 350 599 256 668 365 z m 235 433 b 233 482 233 450 233 465 b 240 794 233 588 240 689 b 238 910 240 832 242 871 b 165 913 214 911 189 913 b 103 911 144 913 124 911 b 19 757 97 906 24 789 b 103 732 19 750 94 732 b 132 771 118 732 125 771 b 133 757 133 767 133 763 b 125 493 133 668 125 582 l 125 426 l 125 425 b 192 421 146 425 169 421 b 235 433 210 421 235 424 z "},"½":{"ha":828,"x_min":0,"x_max":0,"o":"m 299 11 b 633 978 417 317 522 650 l 633 979 b 506 985 614 994 526 978 b 172 1 417 656 283 339 b 293 1 189 6 278 -3 l 296 7 b 299 11 297 8 297 10 z m 790 6 b 793 7 792 6 793 6 b 792 38 789 17 792 26 b 786 104 792 60 796 83 b 615 103 726 104 678 101 b 622 143 608 107 618 133 b 801 306 671 203 794 204 b 800 368 803 326 801 347 b 732 485 796 418 775 463 b 533 456 682 506 569 503 b 499 294 500 418 488 360 l 499 293 l 500 293 b 603 297 532 289 560 293 l 603 299 b 654 382 603 332 611 382 b 667 283 699 378 704 306 b 518 176 618 244 563 226 b 494 4 489 129 499 65 l 494 3 l 526 3 z m 235 433 b 233 482 233 450 233 465 b 240 794 233 588 240 689 b 238 910 240 832 242 871 b 165 913 214 911 189 913 b 103 911 144 913 124 911 b 19 757 97 906 24 789 b 103 732 19 750 94 732 b 132 771 118 732 125 771 b 133 757 133 767 133 763 b 125 493 133 668 125 582 l 125 426 l 125 425 b 192 421 146 425 169 421 b 235 433 210 421 235 424 z "},"¾":{"ha":863,"x_min":0,"x_max":0,"o":"m 338 11 b 672 978 456 317 561 650 l 672 979 b 544 985 653 994 565 978 b 211 1 456 656 322 339 b 332 1 228 6 317 -3 l 335 7 b 338 11 336 8 336 10 z m 836 250 b 797 253 825 250 810 257 b 794 494 792 271 796 493 l 793 494 b 682 493 779 494 690 493 b 533 264 582 342 544 282 b 529 258 532 261 531 260 l 529 257 b 536 157 528 203 535 163 l 536 156 b 679 153 539 153 668 157 b 678 4 679 146 678 7 b 782 8 743 4 776 3 b 793 142 783 19 794 143 l 794 142 b 831 144 807 146 818 140 l 832 144 z m 704 253 l 704 251 l 703 251 b 633 251 690 250 633 250 b 707 350 638 256 707 365 z m 53 450 b 86 432 57 449 65 438 b 124 422 99 428 111 424 b 238 428 161 418 203 418 b 307 492 271 439 294 460 b 318 572 318 518 317 546 b 319 803 322 649 321 725 b 310 853 321 819 319 838 b 26 824 261 933 60 936 b 24 760 19 803 24 778 l 24 758 b 115 760 28 758 100 760 b 215 764 131 797 215 828 b 119 717 219 706 151 728 b 122 621 121 690 111 644 b 199 611 146 625 178 626 b 210 551 219 596 221 569 b 117 578 182 513 128 543 l 115 578 b 25 572 82 579 53 571 b 24 571 24 572 24 572 b 31 500 28 543 26 521 b 53 450 32 482 40 465 z "},"´":{"ha":354,"x_min":0,"x_max":0,"o":"m 240 961 b 8 735 175 910 72 794 b 194 729 33 728 135 722 b 335 863 208 757 310 838 l 336 864 z "},"«":{"ha":818,"x_min":0,"x_max":0,"o":"m 68 308 b 68 308 68 303 69 313 z m 475 118 b 218 360 386 190 306 283 b 463 626 289 449 408 557 b 357 722 429 649 389 704 b 278 640 331 696 306 669 b 17 364 193 551 86 451 b 365 17 121 222 254 131 l 367 15 b 438 82 422 64 429 74 l 460 104 z m 782 118 b 525 360 693 190 613 283 b 769 626 596 449 715 557 b 664 722 736 649 696 704 b 585 640 638 696 613 669 b 324 364 500 551 393 451 b 672 17 428 222 561 131 l 674 15 b 744 82 729 64 736 74 l 767 104 z "},"»":{"ha":818,"x_min":0,"x_max":0,"o":"m 358 104 l 381 82 b 451 15 388 75 396 64 l 453 17 b 801 364 564 132 694 224 b 540 640 732 451 625 551 b 461 722 513 669 488 696 b 356 626 428 704 389 649 b 600 360 411 557 526 449 b 343 118 513 283 432 190 z m 51 104 l 74 82 b 144 15 81 75 89 64 l 146 17 b 494 364 257 132 388 224 b 233 640 425 451 318 551 b 154 722 206 669 181 696 b 49 626 121 704 82 649 b 293 360 104 557 219 449 b 36 118 206 283 125 190 z "},"²":{"ha":356,"x_min":0,"x_max":0,"o":"m 308 467 l 311 467 b 310 493 307 476 310 483 b 306 553 311 514 313 536 b 150 551 250 553 207 551 b 157 590 143 556 153 581 b 321 738 201 644 314 644 b 318 794 321 756 319 776 b 257 900 314 839 294 882 b 76 874 210 919 110 914 b 44 728 44 839 33 783 l 44 726 b 138 729 74 725 100 725 l 138 731 b 186 807 138 760 144 807 b 196 717 224 803 229 739 b 61 621 153 682 104 667 b 39 465 33 575 44 521 l 39 463 l 68 463 z "},"³":{"ha":336,"x_min":0,"x_max":0,"o":"m 56 488 b 86 472 60 486 68 476 b 119 463 96 468 108 464 b 225 468 151 458 193 458 b 286 525 254 478 275 497 b 297 600 297 549 293 574 b 299 808 301 667 300 736 b 290 853 300 824 300 840 b 32 828 246 929 61 928 b 29 768 25 810 29 785 l 29 767 b 113 768 33 767 97 768 b 204 772 124 806 204 829 b 115 731 204 718 147 743 b 119 642 119 707 108 664 b 189 633 140 647 171 649 b 199 579 206 622 208 596 b 114 603 172 544 125 574 l 113 603 b 31 599 81 604 57 597 l 29 599 b 35 532 33 572 31 550 b 56 488 39 517 44 497 z "},"™":{"ha":751,"x_min":0,"x_max":0,"o":"m 339 892 b 33 899 239 901 132 899 l 35 897 b 38 783 31 851 33 790 b 124 775 47 781 101 786 l 125 774 b 129 389 136 507 129 396 b 249 394 164 394 211 389 l 249 396 b 244 778 244 713 240 763 l 246 779 l 247 779 b 336 779 292 783 318 783 b 339 892 340 814 340 860 z m 703 621 b 704 893 708 714 700 800 b 597 890 672 894 631 890 b 547 821 579 868 565 842 b 543 822 546 821 544 821 b 503 889 528 844 521 868 l 501 889 b 403 886 469 888 429 893 b 404 393 399 494 400 404 b 406 390 406 392 406 390 b 507 393 438 390 475 388 b 506 640 501 482 504 550 b 557 594 533 644 538 601 b 596 646 569 610 581 629 b 606 390 606 563 601 474 b 701 390 629 390 672 394 z "},"^":{"ha":611,"x_min":0,"x_max":0,"o":"m 306 957 b 15 664 200 858 94 774 b 207 657 175 657 161 653 b 301 743 225 661 279 736 b 393 657 324 732 375 657 b 597 665 507 642 590 669 z "},"¹":{"ha":243,"x_min":0,"x_max":0,"o":"m 193 517 b 200 788 193 611 200 699 b 197 889 200 822 201 856 b 135 892 176 890 156 892 b 79 890 117 892 100 890 b 8 757 76 885 8 783 b 79 735 8 751 74 735 b 107 768 93 735 100 768 l 107 757 b 99 528 107 679 99 606 l 99 471 l 99 469 b 158 465 115 468 138 465 b 193 475 174 465 193 465 z "},"¦":{"ha":1157,"x_min":0,"x_max":0,"o":""}," ":{"ha":250,"x_min":0,"x_max":0,"o":""},"b":{"ha":633,"x_min":0,"x_max":0,"o":"m 233 976 b 58 978 233 981 119 989 l 58 886 b 50 1 58 578 43 268 b 238 3 107 1 182 -4 b 239 13 239 4 239 8 b 240 58 239 31 240 38 b 254 64 244 68 249 75 b 383 4 282 8 332 -3 b 617 396 596 19 610 210 b 504 678 617 525 586 649 b 238 660 404 715 244 693 b 233 961 243 921 239 851 z m 449 438 b 458 357 458 411 458 383 b 332 175 458 264 411 175 b 232 376 238 175 232 260 b 317 536 232 519 238 536 b 449 438 393 536 439 503 z "},"c":{"ha":644,"x_min":0,"x_max":0,"o":"m 608 267 b 432 269 569 278 469 265 b 399 196 426 246 417 208 b 239 258 356 167 232 172 b 247 439 243 324 240 382 b 260 467 250 454 254 463 b 307 497 272 482 288 492 b 435 408 379 515 425 474 b 611 401 482 401 564 390 b 557 651 607 524 610 614 b 403 710 518 689 463 706 b 294 711 364 714 332 707 b 86 631 207 711 113 688 b 64 549 81 613 65 569 b 56 449 58 515 56 482 b 128 49 71 328 28 138 b 247 -12 160 17 200 -4 b 569 49 354 -12 506 -42 b 608 267 594 74 601 171 z "},"ß":{"ha":628,"x_min":0,"x_max":0,"o":"m 300 493 b 344 383 297 453 313 417 b 328 197 390 342 417 211 b 283 169 303 196 288 186 b 288 0 275 96 276 40 b 486 32 386 -7 426 3 b 604 201 546 61 589 114 b 510 460 626 321 568 388 b 503 489 500 471 496 476 b 571 706 540 551 571 628 b 19 963 571 1017 242 1024 l 18 961 b 22 4 24 639 11 326 b 53 1 32 0 42 1 b 189 0 86 0 132 0 b 201 131 199 -1 203 43 b 199 297 200 218 200 274 b 194 460 197 346 196 408 b 190 565 194 486 193 521 b 189 672 189 610 188 646 b 194 756 190 700 193 728 b 322 760 222 771 285 767 b 390 708 351 753 375 738 b 349 592 406 679 400 640 b 300 493 324 568 307 536 z "},"¤":{"ha":860,"x_min":0,"x_max":0,"o":"m 310 775 b 176 925 260 832 217 881 l 33 803 b 136 682 82 736 69 771 b 121 353 114 597 114 439 b 136 279 125 329 126 307 l 136 278 b 33 154 118 256 100 232 b 190 35 60 143 163 32 b 286 164 236 97 265 136 b 543 165 368 146 458 149 b 669 35 601 96 600 111 b 800 132 696 31 774 121 l 826 154 b 703 278 793 169 743 228 b 743 479 735 338 743 411 b 739 592 743 518 746 554 b 711 672 733 622 724 649 b 826 803 751 718 793 764 l 683 925 b 551 776 640 879 597 826 b 382 786 497 786 436 790 b 310 775 367 786 325 776 z m 336 628 b 535 622 397 639 468 643 b 575 592 550 618 564 607 b 596 483 601 558 601 521 b 585 404 592 457 590 431 b 504 310 578 356 560 317 l 501 310 b 481 307 492 310 488 307 b 343 301 435 297 392 297 b 267 396 294 311 267 350 b 269 551 267 447 260 497 b 336 628 276 590 299 615 z "},"Þ":{"ha":646,"x_min":0,"x_max":0,"o":"m 251 260 b 429 185 296 217 367 185 b 633 557 572 185 633 408 b 400 878 633 742 531 874 b 250 814 333 878 276 878 b 247 1010 250 975 247 933 l 58 1014 b 49 -6 40 658 75 396 b 249 6 74 1 231 -15 b 251 260 242 28 251 40 z m 454 603 b 463 529 461 579 463 553 b 339 379 463 446 417 379 b 253 547 247 379 253 443 b 325 692 253 676 249 692 b 454 603 401 692 444 649 z "},"·":{"ha":207,"x_min":0,"x_max":0,"o":"m 40 546 b 46 354 39 461 46 408 b 169 367 118 358 154 343 b 165 544 169 422 165 521 z "},"§":{"ha":1157,"x_min":0,"x_max":0,"o":""},"¶":{"ha":942,"x_min":0,"x_max":0,"o":"m 551 1011 l 307 1010 b 110 988 235 1006 158 1010 b 42 896 75 972 53 942 b 46 572 26 779 22 682 b 292 444 106 460 147 422 b 282 -283 296 197 297 -110 b 478 -275 307 -276 460 -296 b 482 814 467 -93 476 482 l 589 813 b 571 -283 578 465 593 3 b 767 -275 596 -276 749 -296 b 774 811 756 -96 768 476 b 913 821 836 807 901 801 b 908 1011 913 876 908 989 l 776 1014 z "},"¸":{"ha":264,"x_min":0,"x_max":0,"o":"m 121 -6 b 107 -3 121 -6 117 -4 b 94 0 103 -1 99 -1 b 24 -204 65 -82 79 -47 b 175 -206 24 -207 146 -206 l 175 -204 b 240 -8 186 -171 233 -36 l 242 -8 z "},"µ":{"ha":606,"x_min":0,"x_max":0,"o":"m 235 6 b 393 75 294 13 360 19 b 396 1 394 49 392 33 b 576 3 399 -14 553 3 b 575 699 583 247 575 471 b 400 690 486 688 492 701 b 401 313 382 569 408 440 b 269 238 394 213 300 222 b 264 240 268 239 265 239 b 229 375 235 263 233 329 b 224 697 222 475 231 613 b 50 692 158 697 115 701 b 46 288 54 588 46 426 b 44 -228 40 210 44 -197 b 240 -219 69 -221 222 -240 b 235 6 240 -154 235 -221 z "},"ð":{"ha":771,"x_min":0,"x_max":0,"o":"m 217 289 b 306 431 207 360 228 421 b 515 299 379 438 504 403 b 400 178 525 228 482 188 b 219 267 329 171 242 194 z m 400 1082 b 233 1165 329 1104 300 1139 b 51 1031 204 1176 49 1033 b 217 950 125 999 168 961 b 49 829 126 885 50 829 b 151 738 56 818 125 775 b 371 882 163 744 256 804 b 461 717 428 833 450 772 b 476 590 471 674 467 635 b 249 621 446 606 386 636 b 38 286 74 599 31 476 l 39 247 b 42 215 39 236 40 225 b 447 -29 64 18 256 -51 b 708 539 718 4 742 261 b 629 899 693 668 678 803 b 543 1007 607 943 578 978 b 674 1088 594 1040 622 1056 b 550 1188 621 1144 596 1128 b 400 1082 529 1176 472 1133 z "},"þ":{"ha":635,"x_min":0,"x_max":0,"o":"m 246 72 b 424 -3 290 29 361 -3 b 628 369 567 -3 628 221 b 394 690 628 554 525 686 b 244 626 328 690 271 690 b 247 1004 246 789 247 926 l 58 1008 b 43 -239 43 668 58 147 b 250 -231 69 -232 232 -251 b 246 72 243 -129 246 -157 z m 449 415 b 457 342 456 392 457 365 b 333 192 457 258 411 192 b 247 360 242 192 247 256 b 319 504 247 489 243 504 b 449 415 396 504 439 461 z "},"Ð":{"ha":710,"x_min":0,"x_max":0,"o":"m 29 569 b 35 378 28 485 35 432 b 108 376 57 378 82 378 b 114 6 108 260 110 139 b 479 11 228 10 360 -11 b 656 304 531 22 604 75 b 672 567 676 389 682 479 b 639 728 668 621 654 678 b 581 858 626 776 607 815 b 107 954 481 1029 264 976 b 108 568 111 819 110 696 z m 461 285 b 367 231 438 250 410 235 b 271 240 357 231 271 221 b 268 386 267 278 268 332 l 356 385 b 351 563 356 440 351 539 l 269 564 b 268 728 271 629 272 690 b 408 729 299 739 371 751 b 493 528 475 685 482 599 b 461 285 504 447 490 332 z "},"×":{"ha":1071,"x_min":0,"x_max":0,"o":"m 43 1008 b 50 3 43 653 68 360 b 949 18 1042 -25 936 -1 b 942 1006 938 264 942 756 z m 340 517 b 188 140 296 417 307 390 b 192 893 188 353 188 678 b 340 517 303 686 307 621 z m 632 514 b 799 886 647 613 758 788 b 799 149 799 682 806 367 b 632 514 758 253 647 411 z m 482 569 b 357 889 467 614 390 772 b 624 890 421 889 560 890 b 482 569 583 765 500 621 z m 629 143 b 346 135 597 136 433 128 b 481 456 372 221 456 390 z "},"­":{"ha":499,"x_min":0,"x_max":0,"o":"m 43 422 b 44 346 43 400 44 350 b 453 344 46 346 419 343 b 456 425 453 382 449 388 b 43 422 439 425 58 422 z "},"¬":{"ha":624,"x_min":0,"x_max":0,"o":"m 574 349 b 578 649 574 351 578 615 l 576 649 b 578 653 576 650 578 651 b 3 656 561 653 19 656 b 4 579 3 633 4 583 b 496 572 6 578 342 574 b 497 349 496 490 497 358 z "},"ﬀ":{"ha":1163,"x_min":0,"x_max":0,"o":"m 338 692 b 379 790 326 740 335 783 b 563 808 432 801 517 813 b 563 1007 569 864 582 949 b 288 979 469 1011 367 1007 b 136 694 156 939 125 789 b 31 696 104 696 74 696 l 35 517 b 139 518 75 518 107 518 b 142 -1 139 432 131 72 b 332 3 190 -8 267 10 l 332 519 b 683 514 375 519 554 518 b 696 -1 688 413 696 290 b 885 3 744 -8 821 10 l 885 519 b 1106 515 944 518 1011 521 b 1106 681 1106 550 1110 640 l 890 681 b 933 790 879 731 889 783 b 1115 808 983 801 1071 813 b 1115 1007 1126 864 1135 950 b 840 979 1025 1011 922 1007 b 689 693 711 939 682 789 z "},"ﬃ":{"ha":1340,"x_min":0,"x_max":0,"o":"m 338 690 b 379 789 328 739 335 782 b 563 807 432 800 517 811 b 563 1004 569 863 581 944 b 288 976 472 1008 369 1004 b 138 693 156 931 131 790 b 33 694 106 694 74 694 l 38 517 b 140 518 76 518 108 518 b 143 1 140 433 138 75 b 332 7 194 -6 268 14 l 332 519 b 682 514 375 519 551 518 b 694 1 686 414 694 294 b 883 7 747 -6 817 14 l 883 519 b 1103 515 943 518 1008 521 b 1094 0 1103 342 1106 168 b 1300 10 1122 11 1276 -14 b 1301 729 1288 244 1300 494 l 1301 735 l 1276 735 b 1144 738 1215 733 1168 736 b 1103 739 1135 738 1110 740 l 1103 738 b 1103 681 1101 722 1103 696 l 889 681 b 931 789 879 729 886 782 b 1114 807 983 800 1068 811 b 1114 1004 1121 863 1132 944 b 839 976 1021 1008 921 1004 b 688 692 711 936 681 786 z "},"ĳ":{"ha":692,"x_min":0,"x_max":0,"o":"m 218 699 b 92 701 158 697 115 700 b 53 703 82 701 60 704 l 53 701 b 44 0 31 483 63 235 b 240 8 69 7 222 -12 b 242 694 228 232 240 471 l 242 699 z m 47 1001 b 53 810 46 917 53 864 b 240 819 125 814 224 794 b 236 997 240 875 236 974 z m 463 504 b 457 -17 456 358 461 139 b 243 -72 421 -68 306 -76 b 243 -260 236 -124 224 -203 b 624 -137 390 -267 576 -250 b 644 365 653 42 644 185 b 642 694 638 433 653 604 b 463 690 594 701 522 683 z m 454 1001 b 460 810 453 917 460 864 b 643 819 533 814 626 794 b 639 997 643 875 639 974 z "},"ﬄ":{"ha":1425,"x_min":0,"x_max":0,"o":"m 340 692 b 382 790 329 740 338 783 b 565 808 435 801 519 813 b 565 1007 572 864 585 949 b 290 979 472 1011 369 1007 b 139 694 158 939 128 789 b 33 696 107 696 76 696 l 38 517 b 142 518 78 518 110 518 b 144 -1 142 432 133 72 b 335 3 193 -8 269 10 l 335 519 b 686 514 378 519 557 518 b 699 -1 690 413 699 290 b 888 3 747 -8 824 10 l 888 519 b 1108 515 947 518 1014 521 b 1108 681 1108 550 1113 640 l 893 681 b 936 790 882 731 892 783 b 1118 808 986 801 1074 813 b 1118 1007 1129 864 1138 950 b 843 979 1028 1011 925 1007 b 692 693 714 939 685 789 z m 1175 1007 b 1175 -3 1142 651 1201 353 b 1382 6 1204 6 1360 -17 b 1375 1003 1365 242 1375 763 z "},"ﬁ":{"ha":775,"x_min":0,"x_max":0,"o":"m 543 514 b 533 0 543 340 546 168 b 739 10 561 11 715 -14 b 740 728 724 243 740 494 l 740 732 l 715 732 b 583 735 654 731 610 733 b 543 736 574 735 550 738 l 543 735 b 543 678 542 719 543 693 l 329 678 b 371 788 318 725 326 781 b 553 804 425 794 508 808 b 553 1001 560 860 571 942 b 279 974 463 1006 361 1001 b 129 681 147 928 122 779 b 25 682 97 682 65 682 l 29 515 b 132 517 68 517 100 517 b 136 1 132 432 125 75 b 324 7 185 -6 260 14 l 324 518 b 543 514 381 517 449 519 z "},"ﬂ":{"ha":796,"x_min":0,"x_max":0,"o":"m 550 522 b 542 1 550 346 554 172 b 750 10 569 10 728 -12 b 753 1007 733 244 753 771 l 753 1013 l 728 1013 b 593 1015 665 1011 619 1014 b 554 1017 583 1015 564 1017 b 283 989 464 1021 361 1015 b 132 692 151 944 121 789 b 25 693 100 693 68 693 l 29 524 b 135 525 69 525 103 525 b 138 3 135 438 126 78 b 328 7 189 -4 263 14 l 328 526 b 550 522 388 525 456 528 z m 333 689 b 376 815 322 738 332 808 b 550 817 426 822 501 818 l 550 689 z "},"●":{"ha":767,"x_min":0,"x_max":0,"o":"m 686 181 b 694 232 692 197 690 215 b 621 619 713 378 735 535 b 604 631 615 624 610 626 b 489 675 567 654 528 668 b 263 679 415 690 339 683 b 94 590 197 669 135 642 b 43 471 64 554 47 514 b 50 194 36 376 35 285 b 192 28 60 117 110 65 b 342 8 240 13 290 8 b 624 85 439 15 550 11 b 686 181 653 113 674 144 z "},"⅛":{"ha":808,"x_min":0,"x_max":0,"o":"m 297 11 b 632 978 415 317 521 650 l 632 979 b 504 985 613 994 525 978 b 171 1 415 656 282 339 b 292 1 188 6 276 -3 l 294 7 b 297 11 296 8 296 10 z m 233 433 b 232 482 232 450 232 465 b 239 794 232 588 239 689 b 236 910 239 832 240 871 b 164 913 213 911 188 913 b 101 911 143 913 122 911 b 18 757 96 906 22 789 b 101 732 18 750 93 732 b 131 771 117 732 124 771 b 132 757 132 767 132 763 b 124 493 132 668 124 582 l 124 426 l 124 425 b 190 421 144 425 168 421 b 233 433 208 421 233 424 z m 779 367 b 728 476 779 429 744 468 b 621 493 693 494 658 494 b 519 349 556 489 519 417 b 551 250 519 308 531 276 b 515 144 525 222 515 182 b 649 3 515 61 560 3 b 778 140 738 3 778 64 b 733 246 778 179 763 219 b 779 347 761 272 779 308 z m 608 383 b 646 410 618 410 636 410 b 692 357 678 410 692 383 b 650 306 692 329 676 306 b 606 360 617 307 606 332 b 607 376 606 367 606 372 z m 604 174 b 639 200 610 190 624 200 b 686 146 671 200 686 174 b 646 94 686 119 672 94 b 603 154 618 94 603 125 b 604 174 603 163 603 169 z "},"⅜":{"ha":864,"x_min":0,"x_max":0,"o":"m 353 11 b 688 978 471 317 576 650 l 688 979 b 560 985 668 994 581 978 b 226 1 471 656 338 339 b 347 1 243 6 332 -3 l 350 7 b 353 11 351 8 351 10 z m 835 367 b 783 476 835 429 800 468 b 676 493 749 494 714 494 b 575 349 611 489 575 417 b 607 250 575 308 586 276 b 571 144 581 222 571 182 b 704 3 571 61 615 3 b 833 140 793 3 833 64 b 789 246 833 179 818 219 b 835 347 817 272 835 308 z m 664 383 b 701 410 674 410 692 410 b 747 357 733 410 747 383 b 706 306 747 329 732 306 b 661 360 672 307 661 332 b 663 376 661 367 661 372 z m 660 174 b 694 200 665 190 679 200 b 742 146 726 200 742 174 b 701 94 742 119 728 94 b 658 154 674 94 658 125 b 660 174 658 163 658 169 z m 51 450 b 85 432 56 449 64 438 b 122 422 97 428 110 424 b 236 428 160 418 201 418 b 306 492 269 439 293 460 b 317 572 317 518 315 546 b 318 803 321 649 319 725 b 308 853 319 819 318 838 b 25 824 260 933 58 936 b 22 760 18 803 22 778 l 22 758 b 114 760 26 758 99 760 b 214 764 129 797 214 828 b 118 717 218 706 150 728 b 121 621 119 690 110 644 b 197 611 144 625 176 626 b 208 551 218 596 219 569 b 115 578 181 513 126 543 l 114 578 b 24 572 81 579 51 571 b 22 571 22 572 22 572 b 29 500 26 543 25 521 b 51 450 31 482 39 465 z "},"⅞":{"ha":846,"x_min":0,"x_max":0,"o":"m 335 11 b 669 978 453 317 558 650 l 669 979 b 542 985 650 994 563 978 b 208 1 453 656 319 339 b 329 1 225 6 314 -3 l 332 7 b 335 11 333 8 333 10 z m 817 367 b 765 476 817 429 782 468 b 658 493 731 494 696 494 b 557 349 593 489 557 417 b 589 250 557 308 568 276 b 553 144 563 222 553 182 b 686 3 553 61 597 3 b 815 140 775 3 815 64 b 771 246 815 179 800 219 b 817 347 799 272 817 308 z m 646 383 b 683 410 656 410 674 410 b 729 357 715 410 729 383 b 688 306 729 329 714 306 b 643 360 654 307 643 332 b 644 376 643 367 643 372 z m 642 174 b 676 200 647 190 661 200 b 724 146 708 200 724 174 b 683 94 724 119 710 94 b 640 154 656 94 640 125 b 642 174 640 163 640 169 z m 21 785 b 185 779 64 786 135 781 b 15 421 135 663 75 547 b 114 421 42 414 88 421 b 304 782 175 543 253 661 b 304 872 304 815 303 839 b 22 874 219 882 113 878 b 18 785 22 847 22 813 z "},"⅝":{"ha":860,"x_min":0,"x_max":0,"o":"m 349 11 b 683 978 467 317 572 650 l 683 979 b 556 985 664 994 576 978 b 222 1 467 656 333 339 b 343 1 239 6 328 -3 l 346 7 b 349 11 347 8 347 10 z m 831 367 b 779 476 831 429 796 468 b 672 493 744 494 710 494 b 571 349 607 489 571 417 b 603 250 571 308 582 276 b 567 144 576 222 567 182 b 700 3 567 61 611 3 b 829 140 789 3 829 64 b 785 246 829 179 814 219 b 831 347 813 272 831 308 z m 660 383 b 697 410 669 410 688 410 b 743 357 729 410 743 383 b 701 306 743 329 728 306 b 657 360 668 307 657 332 b 658 376 657 367 657 372 z m 656 174 b 690 200 661 190 675 200 b 738 146 722 200 738 174 b 697 94 738 119 724 94 b 654 154 669 94 654 125 b 656 174 654 163 654 169 z m 28 575 l 28 574 b 25 535 26 558 25 547 b 322 519 19 379 294 392 b 206 776 338 628 317 758 b 135 775 183 779 160 779 l 133 775 l 133 776 l 132 776 b 128 799 128 782 129 792 b 126 801 128 800 126 800 l 126 804 l 128 804 b 315 808 143 804 297 804 b 318 910 315 808 319 910 b 25 907 301 915 32 907 l 24 907 b 25 668 25 819 25 758 b 26 667 25 667 25 667 b 175 667 65 665 126 676 b 169 536 231 651 233 547 b 126 575 149 532 131 542 l 126 579 z "},"g":{"ha":653,"x_min":0,"x_max":0,"o":"m 194 329 b 197 383 194 347 193 365 b 253 496 204 426 225 464 b 403 472 296 532 379 531 b 421 249 421 401 421 322 b 381 164 417 215 413 175 b 236 196 332 149 269 156 b 194 317 208 229 194 269 z m 435 -278 b 589 -181 481 -274 538 -261 b 601 -60 607 -151 600 -104 b 603 693 613 207 610 461 b 415 692 540 693 476 699 b 407 625 406 675 422 618 b 269 690 385 676 329 694 b 38 247 32 675 38 421 b 76 85 42 190 50 135 b 257 -3 110 15 186 -3 b 415 33 310 1 379 -7 b 415 -15 414 17 414 0 b 413 -69 417 -31 414 -51 b 247 -57 390 -174 247 -154 b 69 -58 204 -50 107 -43 b 92 -175 65 -87 76 -147 b 292 -278 135 -237 204 -278 b 435 -278 368 -278 417 -282 z "},"e":{"ha":633,"x_min":0,"x_max":0,"o":"m 222 349 b 594 360 281 338 556 349 b 408 704 606 515 581 675 b 65 588 276 738 114 697 b 35 394 43 526 40 463 b 161 11 28 244 63 81 b 233 -14 183 -1 207 -10 b 553 47 339 -14 490 -42 b 592 264 579 69 585 169 b 417 267 551 275 454 263 b 243 204 424 117 288 118 b 222 324 222 238 224 268 z m 390 564 b 444 474 424 547 444 511 b 357 457 444 446 453 457 b 226 488 219 457 219 449 b 342 578 233 538 254 578 b 390 564 363 578 375 574 z "},"f":{"ha":558,"x_min":0,"x_max":0,"o":"m 304 192 l 304 494 b 514 483 361 493 419 489 b 521 593 521 556 521 553 b 522 657 522 619 518 636 l 310 657 b 350 751 300 703 307 744 b 524 768 403 758 481 772 b 524 956 531 819 543 899 b 263 929 436 960 340 956 b 119 660 136 889 113 751 b 19 661 90 661 58 661 l 24 492 b 122 493 61 493 93 493 b 125 1 122 413 114 71 b 304 6 174 -6 243 13 z "},"š":{"ha":694,"x_min":0,"x_max":0,"o":"m 357 765 b 582 992 439 842 519 907 b 433 997 460 999 467 1001 b 361 929 419 993 375 936 b 290 997 343 940 304 997 b 131 990 201 1008 135 986 z m 657 481 b 536 704 657 581 624 667 b 225 707 439 726 297 726 b 228 326 46 660 19 397 b 446 211 331 282 457 303 b 272 219 450 104 276 135 b 67 218 215 219 128 225 l 67 215 l 67 211 b 379 -22 67 63 193 -29 b 628 103 486 -24 585 13 b 610 333 663 204 650 267 b 364 424 567 389 468 408 b 363 567 276 454 278 551 b 458 481 410 571 469 528 b 657 481 521 468 597 471 z "},"ž":{"ha":657,"x_min":0,"x_max":0,"o":"m 357 765 b 582 992 439 842 519 907 b 433 997 460 999 467 1001 b 361 929 419 993 375 936 b 290 997 343 940 304 997 b 131 990 201 1008 135 986 z m 615 690 b 438 692 600 697 467 685 b 51 690 338 692 201 690 b 51 482 56 608 44 583 b 361 504 132 493 264 500 b 43 179 268 393 132 294 b 46 1 39 124 50 108 b 611 10 222 1 440 6 b 608 203 611 75 608 143 b 307 194 508 188 400 201 b 615 504 401 300 521 403 b 615 690 608 565 615 619 z "},"Š":{"ha":764,"x_min":0,"x_max":0,"o":"m 638 1264 b 478 1271 633 1260 567 1282 b 407 1203 464 1271 425 1214 b 335 1271 393 1210 349 1267 b 186 1265 301 1275 308 1272 b 411 1039 249 1181 329 1115 z m 707 658 b 499 660 642 647 564 642 b 325 694 521 761 340 799 b 325 657 321 682 324 669 b 415 597 340 613 376 603 b 656 451 514 586 601 531 b 678 153 721 368 722 249 b 410 -7 633 39 524 -11 b 82 278 247 -3 71 101 l 82 282 l 82 286 b 294 288 147 296 232 286 b 482 296 301 169 504 167 b 283 413 471 385 361 397 b 189 460 246 419 215 438 b 281 949 18 622 103 875 b 589 933 371 986 500 974 b 708 658 678 888 735 797 z "},"Ž":{"ha":696,"x_min":0,"x_max":0,"o":"m 588 1264 b 428 1271 583 1260 517 1282 b 357 1203 414 1271 375 1214 b 285 1271 343 1210 299 1267 b 136 1265 251 1275 258 1272 b 361 1039 199 1181 279 1115 z m 647 742 b 290 210 540 560 407 389 l 289 208 b 639 226 438 226 481 219 l 639 222 b 636 0 649 151 642 67 l 636 -3 b 68 -1 460 7 267 10 b 56 221 46 64 63 144 b 396 743 136 400 288 590 b 61 761 313 754 128 761 b 42 951 39 799 60 893 l 42 953 b 39 958 42 954 40 957 b 647 964 229 976 435 965 b 647 743 657 892 646 814 z "},"‹":{"ha":554,"x_min":0,"x_max":0,"o":"m 496 118 b 239 360 407 190 326 283 b 483 626 313 449 428 557 b 378 722 450 649 411 704 b 299 640 351 696 326 669 b 38 364 214 551 107 451 b 386 17 144 224 275 132 l 388 15 b 458 82 443 64 451 75 l 481 104 z "},"›":{"ha":554,"x_min":0,"x_max":0,"o":"m 68 104 l 90 82 b 161 15 97 75 106 64 l 163 17 b 511 364 274 132 404 224 b 250 640 442 451 335 551 b 171 722 222 669 197 696 b 65 626 138 704 99 649 b 310 360 121 557 236 449 b 53 118 222 283 142 190 z "}}}
